<?xml version="1.0" encoding="UTF-8" standalone="no"?>
<svg
   xmlns:dc="http://purl.org/dc/elements/1.1/"
   xmlns:cc="http://creativecommons.org/ns#"
   xmlns:rdf="http://www.w3.org/1999/02/22-rdf-syntax-ns#"
   xmlns:svg="http://www.w3.org/2000/svg"
   xmlns="http://www.w3.org/2000/svg"
   xmlns:sodipodi="http://sodipodi.sourceforge.net/DTD/sodipodi-0.dtd"
   xmlns:inkscape="http://www.inkscape.org/namespaces/inkscape"
   width="152.25122mm"
   height="112.22602mm"
   viewBox="0 0 152.25123 112.22602"
   version="1.1"
   id="svg34"
   inkscape:version="1.0.1 (0767f8302a, 2020-10-17)"
   sodipodi:docname="charcoal_painter.svg">
  <defs
     id="defs28">
    <clipPath
       clipPathUnits="userSpaceOnUse"
       id="clipPath104">
      <rect
         style="fill:#141839;stroke-width:0.642001;stroke-linejoin:round"
         id="rect106"
         width="189.70305"
         height="175.12276"
         x="11.176064"
         y="40.334206" />
    </clipPath>
  </defs>
  <sodipodi:namedview
     id="base"
     pagecolor="#ffffff"
     bordercolor="#666666"
     borderopacity="1.0"
     inkscape:pageopacity="0.0"
     inkscape:pageshadow="2"
     inkscape:zoom="0.44865211"
     inkscape:cx="191.61726"
     inkscape:cy="583.29152"
     inkscape:document-units="mm"
     inkscape:current-layer="layer1"
     inkscape:document-rotation="0"
     showgrid="false"
     inkscape:window-width="1853"
     inkscape:window-height="1025"
     inkscape:window-x="67"
     inkscape:window-y="27"
     inkscape:window-maximized="1"
     showguides="false"
     inkscape:guide-bbox="true">
    <sodipodi:guide
       position="75.041975,87.692834"
       orientation="0,-1"
       id="guide2027" />
  </sodipodi:namedview>
  <metadata
     id="metadata31">
    <rdf:RDF>
      <cc:Work
         rdf:about="">
        <dc:format>image/svg+xml</dc:format>
        <dc:type
           rdf:resource="http://purl.org/dc/dcmitype/StillImage" />
        <dc:title />
      </cc:Work>
    </rdf:RDF>
  </metadata>
  <g
     inkscape:label="Layer 1"
     inkscape:groupmode="layer"
     id="layer1"
     transform="translate(-16.65276,-27.498021)">
    <path
       style="fill:#000000;fill-opacity:1;stroke:none;stroke-width:0.18509px;stroke-linecap:butt;stroke-linejoin:miter;stroke-opacity:1"
       d="m 80.228925,90.517372 -3.646604,13.321558 c -3.783415,-3.40925 -5.312547,-7.991799 -6.197745,-12.909496 3.427971,-1.890552 6.758866,-2.619533 9.844349,-0.412062 z"
       id="path1895"
       sodipodi:nodetypes="cccc" />
    <path
       style="fill:#000000;fill-opacity:1;stroke:none;stroke-width:0.18509px;stroke-linecap:butt;stroke-linejoin:miter;stroke-opacity:1"
       d="m 83.430643,73.182842 -3.201718,17.33453 C 76.010751,86.48263 72.701822,81.878296 71.674403,75.84472 c 3.959525,-2.864056 7.894431,-4.534639 11.75624,-2.661878 z"
       id="path1897"
       sodipodi:nodetypes="cccc" />
    <path
       style="fill:#000000;fill-opacity:1;stroke:none;stroke-width:0.18509px;stroke-linecap:butt;stroke-linejoin:miter;stroke-opacity:1"
       d="M 83.430643,73.182842 87.564837,49.7354 c -3.62257,-1.652455 -6.756838,0.239929 -9.849887,2.431536 0.764721,7.359499 0.994196,14.885223 5.715693,21.015906 z"
       id="path1899"
       sodipodi:nodetypes="cccc" />
    <path
       style="fill:#000000;fill-opacity:1;stroke:none;stroke-width:0.18509px;stroke-linecap:butt;stroke-linejoin:miter;stroke-opacity:1"
       d="m 77.71495,52.166936 -5.910091,-1.400859 c 0.950908,-5.482679 3.652701,-9.653604 8.881525,-11.931289 0.241145,4.770998 0.292467,9.491605 -2.971434,13.332148 z"
       id="path1901"
       sodipodi:nodetypes="cccc" />
    <path
       style="fill:#000000;fill-opacity:1;stroke:none;stroke-width:0.18509px;stroke-linecap:butt;stroke-linejoin:miter;stroke-opacity:1"
       d="m 60.720197,57.362804 0.580225,-21.370551 c 5.124825,3.885648 9.978381,7.944912 10.504437,14.773824 -3.151071,4.451222 -7.205502,5.161015 -11.084662,6.596727 z"
       id="path1903"
       sodipodi:nodetypes="cccc" />
    <path
       style="fill:#000000;fill-opacity:1;stroke:none;stroke-width:0.18509px;stroke-linecap:butt;stroke-linejoin:miter;stroke-opacity:1"
       d="m 61.300422,35.992253 -4.841784,-0.803816 c -1.814296,-2.664737 0.693505,-4.978941 2.79055,-7.326459 2.037274,2.354934 3.02532,4.985179 2.051234,8.130275 z"
       id="path1905"
       sodipodi:nodetypes="cccc" />
    <path
       style="fill:#000000;fill-opacity:1;stroke:none;stroke-width:0.18509px;stroke-linecap:butt;stroke-linejoin:miter;stroke-opacity:1"
       d="m 59.249188,27.861978 2.051234,8.130275 c 6.530448,2.037566 13.059944,4.059971 19.385962,2.842535 z"
       id="path1907"
       sodipodi:nodetypes="cccc" />
    <path
       style="fill:#000000;fill-opacity:1;stroke:none;stroke-width:0.18509px;stroke-linecap:butt;stroke-linejoin:miter;stroke-opacity:1"
       d="M 56.458638,35.188437 54.912266,61.658545 44.241422,35.854481 c 4.154519,-0.748794 8.534298,-2.942686 12.217216,-0.666044 z"
       id="path1909"
       sodipodi:nodetypes="cccc" />
    <path
       style="fill:#000000;fill-opacity:1;stroke:none;stroke-width:0.18509px;stroke-linecap:butt;stroke-linejoin:miter;stroke-opacity:1"
       d="m 59.249188,27.861978 -19.471731,3.40432 c 1.131949,1.963679 1.948967,4.311501 4.463964,4.588181 5.700178,-0.780671 10.639573,-3.615464 15.007767,-7.992501 z"
       id="path1911"
       sodipodi:nodetypes="cccc" />
    <path
       style="fill:#000000;fill-opacity:1;stroke:none;stroke-width:0.18509px;stroke-linecap:butt;stroke-linejoin:miter;stroke-opacity:1"
       d="m 39.777458,31.266299 c -4.731065,2.921359 -7.338662,7.312791 -8.883765,12.439783 3.520184,-1.696765 7.662225,-1.27087 10.247983,-6.157229 1.624069,-2.500124 -0.10549,-4.345368 -1.364218,-6.282554 z"
       id="path1913"
       sodipodi:nodetypes="cccc" />
    <path
       style="fill:#000000;fill-opacity:1;stroke:none;stroke-width:0.18509px;stroke-linecap:butt;stroke-linejoin:miter;stroke-opacity:1"
       d="m 30.893693,43.706082 c 0.589952,-3.233975 -2.223117,-4.327165 -4.860538,-5.530852 -0.4373,4.069281 0.415268,7.170432 2.42519,9.402916 z"
       id="path1915"
       sodipodi:nodetypes="cccc" />
    <path
       style="fill:#000000;fill-opacity:1;stroke:none;stroke-width:0.18509px;stroke-linecap:butt;stroke-linejoin:miter;stroke-opacity:1"
       d="M 28.458335,47.578147 43.090489,69.064301 24.11853,56.939861 c 0.402742,-4.442453 1.744206,-7.696165 4.339805,-9.361714 z"
       id="path1917"
       sodipodi:nodetypes="cccc" />
    <path
       style="fill:#000000;fill-opacity:1;stroke:none;stroke-width:0.18509px;stroke-linecap:butt;stroke-linejoin:miter;stroke-opacity:1"
       d="M 26.033155,38.17523 16.65276,63.090153 c 3.264325,-1.107979 6.248561,-2.556121 7.46577,-6.150292 2.27951,-6.1377 3.826799,-12.327675 1.914625,-18.764631 z"
       id="path1919"
       sodipodi:nodetypes="cccc" />
    <path
       style="fill:#000000;fill-opacity:1;stroke:none;stroke-width:0.18509px;stroke-linecap:butt;stroke-linejoin:miter;stroke-opacity:1"
       d="m 24.977065,62.686316 c 2.33106,4.239156 0.965436,8.137807 0.320613,12.102851 L 16.65276,63.090153 c 2.888015,-1.108142 5.860751,-2.944597 8.324305,-0.403837 z"
       id="path1921"
       sodipodi:nodetypes="cccc" />
    <path
       style="fill:#000000;fill-opacity:1;stroke:none;stroke-width:0.18509px;stroke-linecap:butt;stroke-linejoin:miter;stroke-opacity:1"
       d="m 25.297678,74.789167 8.19104,9.367149 c 4.22893,-2.458031 7.165638,-5.341062 5.992765,-9.575701 -4.62416,-2.492773 -9.416654,-0.829244 -14.183805,0.208552 z"
       id="path1953"
       sodipodi:nodetypes="cccc" />
    <path
       style="fill:#000000;fill-opacity:1;stroke:none;stroke-width:0.18509px;stroke-linecap:butt;stroke-linejoin:miter;stroke-opacity:1"
       d="m 33.488718,84.156316 c 5.3424,9.318241 11.209458,18.183844 18.202156,26.078344 L 51.398185,94.174115 C 46.336615,87.810055 39.571624,87.118976 33.488718,84.156316 Z"
       id="path1955"
       sodipodi:nodetypes="cccc" />
    <path
       style="fill:#000000;fill-opacity:1;stroke:none;stroke-width:0.18509px;stroke-linecap:butt;stroke-linejoin:miter;stroke-opacity:1"
       d="m 76.582321,103.83893 -12.919159,6.66523 1.489761,-10.626845 c 4.762152,-0.0759 8.550377,1.276275 11.429398,3.961615 z"
       id="path1957"
       sodipodi:nodetypes="cccc" />
    <g
       id="g1951"
       style="fill:#2b2b2b;fill-opacity:1"
       transform="matrix(-0.67571743,0.18105793,0.18105793,0.67571743,102.934,-22.457415)">
      <path
         style="fill:#2b2b2b;fill-opacity:1;stroke:none;stroke-width:0.264583px;stroke-linecap:butt;stroke-linejoin:miter;stroke-opacity:1"
         d="m 97.42817,154.93842 -10.534239,-10.4194 -3.781478,20.11812 z"
         id="path1923" />
      <path
         style="fill:#2b2b2b;fill-opacity:1;stroke:none;stroke-width:0.264583px;stroke-linecap:butt;stroke-linejoin:miter;stroke-opacity:1"
         d="m 86.893931,144.51902 -7.361968,-20.35137 -6.383311,23.42459 z"
         id="path1925" />
      <path
         style="fill:#2b2b2b;fill-opacity:1;stroke:none;stroke-width:0.264583px;stroke-linecap:butt;stroke-linejoin:miter;stroke-opacity:1"
         d="M 79.531963,124.16765 62.431098,93.708856 62.314428,124.84174 Z"
         id="path1927" />
      <path
         style="fill:#2b2b2b;fill-opacity:1;stroke:none;stroke-width:0.264583px;stroke-linecap:butt;stroke-linejoin:miter;stroke-opacity:1"
         d="m 47.93102,93.995687 5.464608,-17.596145 9.03547,17.309312 z"
         id="path1929"
         sodipodi:nodetypes="cccc" />
      <path
         style="fill:#2b2b2b;fill-opacity:1;stroke:none;stroke-width:0.264583px;stroke-linecap:butt;stroke-linejoin:miter;stroke-opacity:1"
         d="M 70.073305,89.587987 85.04934,109.78866 87.819356,94.595502 Z"
         id="path1931" />
      <path
         style="fill:#2b2b2b;fill-opacity:1;stroke:none;stroke-width:0.264583px;stroke-linecap:butt;stroke-linejoin:miter;stroke-opacity:1"
         d="M 53.395628,76.39954 79.111585,65.30228 70.073305,89.587987 Z"
         id="path1933" />
      <path
         style="fill:#2b2b2b;fill-opacity:1;stroke:none;stroke-width:0.264583px;stroke-linecap:butt;stroke-linejoin:miter;stroke-opacity:1"
         d="m 78.935857,53.317303 23.679373,5.483305 -17.11564,3.600434 z"
         id="path1935" />
      <path
         style="fill:#2b2b2b;fill-opacity:1;stroke:none;stroke-width:0.264583px;stroke-linecap:butt;stroke-linejoin:miter;stroke-opacity:1"
         d="m 102.61523,58.800608 4.4662,-7.986803 0.44072,9.179513 z"
         id="path1937" />
      <path
         style="fill:#2b2b2b;fill-opacity:1;stroke:none;stroke-width:0.264583px;stroke-linecap:butt;stroke-linejoin:miter;stroke-opacity:1"
         d="m 107.52215,59.993318 0.47168,38.441034 15.9565,-33.730816 z"
         id="path1939" />
      <path
         style="fill:#2b2b2b;fill-opacity:1;stroke:none;stroke-width:0.264583px;stroke-linecap:butt;stroke-linejoin:miter;stroke-opacity:1"
         d="m 128.61534,55.268395 -21.53391,-4.45459 16.8689,13.889731 z"
         id="path1941"
         sodipodi:nodetypes="cccc" />
      <path
         style="fill:#2b2b2b;fill-opacity:1;stroke:none;stroke-width:0.264583px;stroke-linecap:butt;stroke-linejoin:miter;stroke-opacity:1"
         d="m 128.61534,55.268395 9.58615,25.201336 -9.45591,-11.320777 z"
         id="path1943"
         sodipodi:nodetypes="cccc" />
      <path
         style="fill:#2b2b2b;fill-opacity:1;stroke:none;stroke-width:0.264583px;stroke-linecap:butt;stroke-linejoin:miter;stroke-opacity:1"
         d="m 138.20149,80.469731 0.94062,8.252195 11.64337,-2.522197 z"
         id="path1945"
         sodipodi:nodetypes="cccc" />
      <path
         style="fill:#2b2b2b;fill-opacity:1;stroke:none;stroke-width:0.264583px;stroke-linecap:butt;stroke-linejoin:miter;stroke-opacity:1"
         d="m 139.14211,88.721924 -15.6267,21.789636 19.66178,-4.95972 z"
         id="path1947"
         sodipodi:nodetypes="cccc" />
      <path
         style="fill:#2b2b2b;fill-opacity:1;stroke:none;stroke-width:0.264583px;stroke-linecap:butt;stroke-linejoin:miter;stroke-opacity:1"
         d="m 123.51541,110.51156 -9.20513,31.4631 21.02257,-20.45841 z"
         id="path1949" />
    </g>
    <path
       style="fill:#2b2b2b;fill-opacity:1;stroke:none;stroke-width:0.18509px;stroke-linecap:butt;stroke-linejoin:miter;stroke-opacity:1"
       d="m 33.488718,84.156318 10.921394,30.367452 7.280762,-4.28911 z"
       id="path1959" />
    <path
       style="fill:#000000;fill-opacity:1;stroke:none;stroke-width:0.18509px;stroke-linecap:butt;stroke-linejoin:miter;stroke-opacity:1"
       d="m 105.32782,90.153418 3.6466,13.321572 c 3.78341,-3.40927 5.31255,-7.991813 6.19774,-12.90951 -3.42797,-1.890552 -6.75886,-2.619533 -9.84434,-0.412062 z"
       id="path1961"
       sodipodi:nodetypes="cccc" />
    <path
       style="fill:#000000;fill-opacity:1;stroke:none;stroke-width:0.18509px;stroke-linecap:butt;stroke-linejoin:miter;stroke-opacity:1"
       d="m 102.12608,72.818888 3.20174,17.33453 c 4.21817,-4.034742 7.5271,-8.639076 8.55452,-14.672652 -3.95953,-2.864056 -7.89443,-4.534639 -11.75626,-2.661878 z"
       id="path1963"
       sodipodi:nodetypes="cccc" />
    <path
       style="fill:#000000;fill-opacity:1;stroke:none;stroke-width:0.18509px;stroke-linecap:butt;stroke-linejoin:miter;stroke-opacity:1"
       d="M 102.12608,72.818888 97.991873,49.371446 c 3.622577,-1.652455 6.756857,0.239929 9.849917,2.431536 -0.76472,7.359499 -0.9942,14.885223 -5.71571,21.015906 z"
       id="path1965"
       sodipodi:nodetypes="cccc" />
    <path
       style="fill:#000000;fill-opacity:1;stroke:none;stroke-width:0.18509px;stroke-linecap:butt;stroke-linejoin:miter;stroke-opacity:1"
       d="m 107.84179,51.802982 5.91009,-1.400859 c -0.95091,-5.482679 -3.6527,-9.653604 -8.88152,-11.931289 -0.24116,4.770998 -0.29248,9.491605 2.97143,13.332148 z"
       id="path1967"
       sodipodi:nodetypes="cccc" />
    <path
       style="fill:#000000;fill-opacity:1;stroke:none;stroke-width:0.18509px;stroke-linecap:butt;stroke-linejoin:miter;stroke-opacity:1"
       d="m 124.83654,56.99885 -0.58022,-21.370551 c -5.12483,3.885648 -9.97838,7.944912 -10.50444,14.773824 3.15107,4.451222 7.2055,5.161015 11.08466,6.596727 z"
       id="path1969"
       sodipodi:nodetypes="cccc" />
    <path
       style="fill:#000000;fill-opacity:1;stroke:none;stroke-width:0.18509px;stroke-linecap:butt;stroke-linejoin:miter;stroke-opacity:1"
       d="m 124.25632,35.628299 4.84178,-0.803816 c 1.8143,-2.664737 -0.6935,-4.978941 -2.79055,-7.326459 -2.03727,2.354934 -3.02532,4.985179 -2.05123,8.130275 z"
       id="path1971"
       sodipodi:nodetypes="cccc" />
    <path
       style="fill:#000000;fill-opacity:1;stroke:none;stroke-width:0.18509px;stroke-linecap:butt;stroke-linejoin:miter;stroke-opacity:1"
       d="m 126.30755,27.498024 -2.05123,8.130275 c -6.53045,2.037566 -13.05995,4.059971 -19.38596,2.842535 z"
       id="path1973"
       sodipodi:nodetypes="cccc" />
    <path
       style="fill:#000000;fill-opacity:1;stroke:none;stroke-width:0.18509px;stroke-linecap:butt;stroke-linejoin:miter;stroke-opacity:1"
       d="m 129.0981,34.824483 1.54637,26.470108 10.67085,-25.804064 c -4.15452,-0.748794 -8.5343,-2.942686 -12.21722,-0.666044 z"
       id="path1975"
       sodipodi:nodetypes="cccc" />
    <path
       style="fill:#000000;fill-opacity:1;stroke:none;stroke-width:0.18509px;stroke-linecap:butt;stroke-linejoin:miter;stroke-opacity:1"
       d="m 126.30755,27.498024 19.47173,3.40432 c -1.13195,1.963679 -1.94896,4.311501 -4.46396,4.588181 -5.70018,-0.780671 -10.63957,-3.615464 -15.00777,-7.992501 z"
       id="path1977"
       sodipodi:nodetypes="cccc" />
    <path
       style="fill:#000000;fill-opacity:1;stroke:none;stroke-width:0.18509px;stroke-linecap:butt;stroke-linejoin:miter;stroke-opacity:1"
       d="m 145.77928,30.902345 c 4.73107,2.921359 7.33866,7.312791 8.88377,12.439783 -3.52019,-1.696765 -7.66223,-1.27087 -10.24799,-6.157229 -1.62406,-2.500124 0.10549,-4.345368 1.36422,-6.282554 z"
       id="path1979"
       sodipodi:nodetypes="cccc" />
    <path
       style="fill:#000000;fill-opacity:1;stroke:none;stroke-width:0.18509px;stroke-linecap:butt;stroke-linejoin:miter;stroke-opacity:1"
       d="m 154.66305,43.342128 c -0.58995,-3.233975 2.22311,-4.327165 4.86054,-5.530852 0.4373,4.069281 -0.41527,7.170432 -2.42519,9.402916 z"
       id="path1981"
       sodipodi:nodetypes="cccc" />
    <path
       style="fill:#000000;fill-opacity:1;stroke:none;stroke-width:0.18509px;stroke-linecap:butt;stroke-linejoin:miter;stroke-opacity:1"
       d="m 157.09841,47.214193 -14.63216,21.486154 18.97196,-12.12444 c -0.40274,-4.442453 -1.74421,-7.696165 -4.3398,-9.361714 z"
       id="path1983"
       sodipodi:nodetypes="cccc" />
    <path
       style="fill:#000000;fill-opacity:1;stroke:none;stroke-width:0.18509px;stroke-linecap:butt;stroke-linejoin:miter;stroke-opacity:1"
       d="m 159.52359,37.811276 9.38039,24.914923 c -3.26432,-1.107979 -6.24856,-2.556121 -7.46577,-6.150292 -2.27951,-6.1377 -3.8268,-12.327675 -1.91462,-18.764631 z"
       id="path1985"
       sodipodi:nodetypes="cccc" />
    <path
       style="fill:#000000;fill-opacity:1;stroke:none;stroke-width:0.18509px;stroke-linecap:butt;stroke-linejoin:miter;stroke-opacity:1"
       d="m 160.57968,62.322362 c -2.33106,4.239156 -0.96544,8.137807 -0.32062,12.102851 l 8.64492,-11.699014 c -2.88801,-1.108142 -5.86075,-2.944597 -8.3243,-0.403837 z"
       id="path1987"
       sodipodi:nodetypes="cccc" />
    <path
       style="fill:#000000;fill-opacity:1;stroke:none;stroke-width:0.18509px;stroke-linecap:butt;stroke-linejoin:miter;stroke-opacity:1"
       d="m 160.25906,74.425213 -8.19104,9.367149 c -4.22893,-2.458031 -7.16564,-5.341062 -5.99276,-9.575701 4.62416,-2.492773 9.41665,-0.829244 14.1838,0.208552 z"
       id="path1989"
       sodipodi:nodetypes="cccc" />
    <path
       style="fill:#000000;fill-opacity:1;stroke:none;stroke-width:0.18509px;stroke-linecap:butt;stroke-linejoin:miter;stroke-opacity:1"
       d="m 152.06802,83.792362 c -5.3424,9.318241 -11.20946,18.183848 -18.20215,26.078358 l 0.29269,-16.060559 c 5.06157,-6.36406 11.82656,-7.055139 17.90946,-10.017799 z"
       id="path1991"
       sodipodi:nodetypes="cccc" />
    <path
       style="fill:#000000;fill-opacity:1;stroke:none;stroke-width:0.18509px;stroke-linecap:butt;stroke-linejoin:miter;stroke-opacity:1"
       d="m 108.97442,103.47499 12.91916,6.66523 -1.48976,-10.626858 c -4.76215,-0.0759 -8.55038,1.276268 -11.4294,3.961628 z"
       id="path1993"
       sodipodi:nodetypes="cccc" />
    <g
       id="g2023"
       style="fill:#2b2b2b;fill-opacity:1"
       transform="matrix(0.67571743,0.18105793,-0.18105793,0.67571743,82.62271,-22.821373)">
      <path
         style="fill:#2b2b2b;fill-opacity:1;stroke:none;stroke-width:0.264583px;stroke-linecap:butt;stroke-linejoin:miter;stroke-opacity:1"
         d="m 97.42817,154.93842 -10.534239,-10.4194 -3.781478,20.11812 z"
         id="path1995" />
      <path
         style="fill:#2b2b2b;fill-opacity:1;stroke:none;stroke-width:0.264583px;stroke-linecap:butt;stroke-linejoin:miter;stroke-opacity:1"
         d="m 86.893931,144.51902 -7.361968,-20.35137 -6.383311,23.42459 z"
         id="path1997" />
      <path
         style="fill:#2b2b2b;fill-opacity:1;stroke:none;stroke-width:0.264583px;stroke-linecap:butt;stroke-linejoin:miter;stroke-opacity:1"
         d="M 79.531963,124.16765 62.431098,93.708856 62.314428,124.84174 Z"
         id="path1999" />
      <path
         style="fill:#2b2b2b;fill-opacity:1;stroke:none;stroke-width:0.264583px;stroke-linecap:butt;stroke-linejoin:miter;stroke-opacity:1"
         d="m 47.93102,93.995687 5.464608,-17.596145 9.03547,17.309312 z"
         id="path2001"
         sodipodi:nodetypes="cccc" />
      <path
         style="fill:#2b2b2b;fill-opacity:1;stroke:none;stroke-width:0.264583px;stroke-linecap:butt;stroke-linejoin:miter;stroke-opacity:1"
         d="M 70.073305,89.587987 85.04934,109.78866 87.819356,94.595502 Z"
         id="path2003" />
      <path
         style="fill:#2b2b2b;fill-opacity:1;stroke:none;stroke-width:0.264583px;stroke-linecap:butt;stroke-linejoin:miter;stroke-opacity:1"
         d="M 53.395628,76.39954 79.111585,65.30228 70.073305,89.587987 Z"
         id="path2005" />
      <path
         style="fill:#2b2b2b;fill-opacity:1;stroke:none;stroke-width:0.264583px;stroke-linecap:butt;stroke-linejoin:miter;stroke-opacity:1"
         d="m 78.935857,53.317303 23.679373,5.483305 -17.11564,3.600434 z"
         id="path2007" />
      <path
         style="fill:#2b2b2b;fill-opacity:1;stroke:none;stroke-width:0.264583px;stroke-linecap:butt;stroke-linejoin:miter;stroke-opacity:1"
         d="m 102.61523,58.800608 4.4662,-7.986803 0.44072,9.179513 z"
         id="path2009" />
      <path
         style="fill:#2b2b2b;fill-opacity:1;stroke:none;stroke-width:0.264583px;stroke-linecap:butt;stroke-linejoin:miter;stroke-opacity:1"
         d="m 107.52215,59.993318 0.47168,38.441034 15.9565,-33.730816 z"
         id="path2011" />
      <path
         style="fill:#2b2b2b;fill-opacity:1;stroke:none;stroke-width:0.264583px;stroke-linecap:butt;stroke-linejoin:miter;stroke-opacity:1"
         d="m 128.61534,55.268395 -21.53391,-4.45459 16.8689,13.889731 z"
         id="path2013"
         sodipodi:nodetypes="cccc" />
      <path
         style="fill:#2b2b2b;fill-opacity:1;stroke:none;stroke-width:0.264583px;stroke-linecap:butt;stroke-linejoin:miter;stroke-opacity:1"
         d="m 128.61534,55.268395 9.58615,25.201336 -9.45591,-11.320777 z"
         id="path2015"
         sodipodi:nodetypes="cccc" />
      <path
         style="fill:#2b2b2b;fill-opacity:1;stroke:none;stroke-width:0.264583px;stroke-linecap:butt;stroke-linejoin:miter;stroke-opacity:1"
         d="m 138.20149,80.469731 0.94062,8.252195 11.64337,-2.522197 z"
         id="path2017"
         sodipodi:nodetypes="cccc" />
      <path
         style="fill:#2b2b2b;fill-opacity:1;stroke:none;stroke-width:0.264583px;stroke-linecap:butt;stroke-linejoin:miter;stroke-opacity:1"
         d="m 139.14211,88.721924 -15.6267,21.789636 19.66178,-4.95972 z"
         id="path2019"
         sodipodi:nodetypes="cccc" />
      <path
         style="fill:#2b2b2b;fill-opacity:1;stroke:none;stroke-width:0.264583px;stroke-linecap:butt;stroke-linejoin:miter;stroke-opacity:1"
         d="m 123.51541,110.51156 -9.20513,31.4631 21.02257,-20.45841 z"
         id="path2021" />
    </g>
    <path
       style="fill:#2b2b2b;fill-opacity:1;stroke:none;stroke-width:0.18509px;stroke-linecap:butt;stroke-linejoin:miter;stroke-opacity:1"
       d="m 152.06802,83.792364 -10.92139,30.367466 -7.28076,-4.28911 z"
       id="path2025" />
    <path
       style="fill:#000000;fill-opacity:1;stroke:none;stroke-width:0.264583px;stroke-linecap:butt;stroke-linejoin:miter;stroke-opacity:1"
       d="m 65.616569,128.91784 30.424302,-4.08177 1.055663,9.23303 c -10.69218,-1.01601 -21.415219,-1.92322 -31.479965,-5.15126 z"
       id="path2029"
       sodipodi:nodetypes="cccc" />
    <path
       style="fill:#121212;fill-opacity:1;stroke:none;stroke-width:0.264583px;stroke-linecap:butt;stroke-linejoin:miter;stroke-opacity:1"
       d="m 65.616569,128.91784 c -0.491925,3.02209 0.304294,6.04417 1.332272,9.06626 l 30.147691,-3.915 z"
       id="path2031"
       sodipodi:nodetypes="cccc" />
    <path
       style="fill:#000000;fill-opacity:1;stroke:none;stroke-width:0.264583px;stroke-linecap:butt;stroke-linejoin:miter;stroke-opacity:1"
       d="m 106.51766,116.04035 -3.50631,20.53325 c 2.63874,1.63485 5.78282,2.14941 9.13113,2.21123 -0.12709,-7.94957 -2.55754,-15.41408 -5.62482,-22.74448 z"
       id="path2033"
       sodipodi:nodetypes="cccc" />
    <path
       style="fill:#121212;fill-opacity:1;stroke:none;stroke-width:0.264583px;stroke-linecap:butt;stroke-linejoin:miter;stroke-opacity:1"
       d="m 106.51766,116.04035 c 2.31175,-0.15769 4.54615,-0.0223 6.7036,0.4046 l -1.07878,22.33988 z"
       id="path2035"
       sodipodi:nodetypes="cccc" />
    <path
       style="fill:#090909;fill-opacity:1;stroke:none;stroke-width:0.264583px;stroke-linecap:butt;stroke-linejoin:miter;stroke-opacity:1"
       d="m 65.616569,128.91784 -1.157616,4.91928 2.489888,4.14698 z"
       id="path2037" />
    <path
       style="fill:#090909;fill-opacity:1;stroke:none;stroke-width:0.264583px;stroke-linecap:butt;stroke-linejoin:miter;stroke-opacity:1"
       d="m 96.040871,124.83607 1.551109,4.85257 -0.495448,4.38046 z"
       id="path2039" />
    <path
       style="fill:#121212;fill-opacity:1;stroke:none;stroke-width:0.264583px;stroke-linecap:butt;stroke-linejoin:miter;stroke-opacity:1"
       d="m 103.01135,136.5736 3.40419,2.77958 5.72694,-0.56835 z"
       id="path2041" />
    <path
       style="fill:#000000;fill-opacity:1;stroke:none;stroke-width:0.264583px;stroke-linecap:butt;stroke-linejoin:miter;stroke-opacity:1"
       d="m 106.51766,116.04035 6.7036,0.4046 -3.80982,-0.9909 z"
       id="path2043" />
    <path
       style="fill:#000000;fill-opacity:1;stroke:none;stroke-width:0.440667px;stroke-linecap:butt;stroke-linejoin:miter;stroke-opacity:1"
       d="m 118.84292,133.15045 -2.59397,4.17049 6.09732,0.34595 z"
       id="path2045" />
    <path
       style="fill:#000000;fill-opacity:1;stroke:none;stroke-width:0.440667px;stroke-linecap:butt;stroke-linejoin:miter;stroke-opacity:1"
       d="m 124.4261,136.7016 -1.06657,3.02244 3.9693,-1.31539 z"
       id="path2047" />
    <path
       style="fill:#000000;fill-opacity:1;stroke:none;stroke-width:0.440667px;stroke-linecap:butt;stroke-linejoin:miter;stroke-opacity:1"
       d="m 128.26576,137.76618 1.29744,-2.05362 1.36452,2.05889 z"
       id="path2049" />
  </g>
</svg>
