<?xml version="1.0" encoding="UTF-8" standalone="no"?>
<svg
   xmlns:dc="http://purl.org/dc/elements/1.1/"
   xmlns:cc="http://creativecommons.org/ns#"
   xmlns:rdf="http://www.w3.org/1999/02/22-rdf-syntax-ns#"
   xmlns:svg="http://www.w3.org/2000/svg"
   xmlns="http://www.w3.org/2000/svg"
   xmlns:sodipodi="http://sodipodi.sourceforge.net/DTD/sodipodi-0.dtd"
   xmlns:inkscape="http://www.inkscape.org/namespaces/inkscape"
   width="146.81958mm"
   height="132.18169mm"
   viewBox="0 0 146.81958 132.18169"
   version="1.1"
   id="svg8"
   inkscape:version="1.0.1 (3bc2e813f5, 2020-09-07)"
   sodipodi:docname="cult_hut.svg">
  <defs
     id="defs2">
    <filter
       style="color-interpolation-filters:sRGB"
       inkscape:label="Color Shift"
       id="filter49204">
      <feColorMatrix
         type="hueRotate"
         values="0"
         result="color1"
         id="feColorMatrix49200" />
      <feColorMatrix
         type="saturate"
         values="0.84793"
         result="color2"
         id="feColorMatrix49202" />
    </filter>
  </defs>
  <sodipodi:namedview
     id="base"
     pagecolor="#ffffff"
     bordercolor="#666666"
     borderopacity="1.0"
     inkscape:pageopacity="0.0"
     inkscape:pageshadow="2"
     inkscape:zoom="0.35"
     inkscape:cx="113.5944"
     inkscape:cy="348.43729"
     inkscape:document-units="mm"
     inkscape:current-layer="layer1-5"
     inkscape:document-rotation="0"
     showgrid="false"
     inkscape:window-width="1299"
     inkscape:window-height="713"
     inkscape:window-x="67"
     inkscape:window-y="27"
     inkscape:window-maximized="1" />
  <metadata
     id="metadata5">
    <rdf:RDF>
      <cc:Work
         rdf:about="">
        <dc:format>image/svg+xml</dc:format>
        <dc:type
           rdf:resource="http://purl.org/dc/dcmitype/StillImage" />
        <dc:title />
      </cc:Work>
    </rdf:RDF>
  </metadata>
  <g
     inkscape:label="Layer 1"
     inkscape:groupmode="layer"
     id="layer1"
     transform="translate(-16.854698,-31.468569)">
    <path
       style="fill:#5c4326;fill-opacity:1;stroke:none;stroke-width:0.540367px;stroke-linecap:butt;stroke-linejoin:miter;stroke-opacity:1"
       d="m 44.458618,61.313054 -2.96697,-1.109131 4.88941,4.867122 c -0.40911,-1.290844 0.0411,-2.723286 -1.92244,-3.757991 z"
       id="path898"
       sodipodi:nodetypes="cccc" />
    <path
       style="fill:#5c4326;fill-opacity:1;stroke:none;stroke-width:0.540367px;stroke-linecap:butt;stroke-linejoin:miter;stroke-opacity:1"
       d="m 53.194688,61.921398 2.61111,-1.28206 -3.57624,4.146305 c 0.0527,-0.94995 -0.17553,-1.894892 0.96513,-2.864245 z"
       id="path902"
       sodipodi:nodetypes="cccc" />
    <path
       style="fill:#422e15;fill-opacity:1;stroke:none;stroke-width:0.490352px;stroke-linecap:butt;stroke-linejoin:miter;stroke-opacity:1"
       d="m 48.542268,106.70693 17.710099,29.0652 c -1.917562,1.70512 -3.902158,3.32337 -7.769726,2.50117 z"
       id="path849"
       sodipodi:nodetypes="cccc" />
    <path
       style="fill:#2d1d0c;fill-opacity:1;stroke:none;stroke-width:0.490352px;stroke-linecap:butt;stroke-linejoin:miter;stroke-opacity:0"
       d="m 66.252367,135.77213 -8.536612,23.61594 0.766886,-21.11477 z"
       id="path851" />
    <path
       style="fill:#422e15;fill-opacity:1;stroke:none;stroke-width:0.490352px;stroke-linecap:butt;stroke-linejoin:miter;stroke-opacity:1"
       d="m 57.715755,159.38807 11.897639,0.52972 -2.387381,3.73247 z"
       id="path853" />
    <path
       style="fill:#422e15;fill-opacity:1;stroke:none;stroke-width:0.515935px;stroke-linecap:butt;stroke-linejoin:miter;stroke-opacity:1"
       d="m 48.542268,106.70693 -0.31767,31.23304 c -2.465125,0.76832 -4.675293,3.0398 -8.03304,-1.4569 z"
       id="path855"
       sodipodi:nodetypes="cccc" />
    <path
       style="fill:#2d1d0c;fill-opacity:1;stroke:none;stroke-width:0.515935px;stroke-linecap:butt;stroke-linejoin:miter;stroke-opacity:1"
       d="M 48.224598,137.93997 28.160252,154.76331 40.191558,136.48307 Z"
       id="path857" />
    <path
       style="fill:#422e15;fill-opacity:1;stroke:none;stroke-width:0.515935px;stroke-linecap:butt;stroke-linejoin:miter;stroke-opacity:1"
       d="m 28.160252,154.76331 8.697837,3.78597 -4.344792,2.7446 z"
       id="path859" />
    <path
       style="fill:#2d1d0c;fill-opacity:1;stroke:none;stroke-width:0.591388px;stroke-linecap:butt;stroke-linejoin:miter;stroke-opacity:1"
       d="m 48.578578,112.92757 16.69427,-40.210406 h -33.858 z"
       id="path865" />
    <path
       style="fill:#2d1d0c;fill-opacity:1;stroke:none;stroke-width:0.499899px;stroke-linecap:butt;stroke-linejoin:miter;stroke-opacity:1"
       d="m 54.392628,57.590245 -4.36743,14.81034 -8.09262,-16.267262 z"
       id="path867" />
    <path
       style="fill:#422e15;fill-opacity:1;stroke:none;stroke-width:0.499898px;stroke-linecap:butt;stroke-linejoin:miter;stroke-opacity:1"
       d="M 31.414852,72.717165 21.028105,57.204351 c -1.640655,0.329149 -2.952542,1.812274 -4.173407,3.614937 z"
       id="path875"
       sodipodi:nodetypes="cccc" />
    <path
       style="fill:#2d1d0c;fill-opacity:1;stroke:none;stroke-width:0.499898px;stroke-linecap:butt;stroke-linejoin:miter;stroke-opacity:1"
       d="M 21.028105,57.204351 20.451199,39.511441 16.854698,60.819288 Z"
       id="path877" />
    <path
       style="fill:#422e15;fill-opacity:1;stroke:none;stroke-width:0.499898px;stroke-linecap:butt;stroke-linejoin:miter;stroke-opacity:1"
       d="m 20.451198,39.511438 3.499821,-8.042869 -6.771898,1.24024 z"
       id="path879" />
    <path
       style="fill:#422e15;fill-opacity:1;stroke:none;stroke-width:0.428944px;stroke-linecap:butt;stroke-linejoin:miter;stroke-opacity:1"
       d="M 65.27285,72.717161 86.150311,63.309682 C 84.749179,61.239174 83.210416,60.353861 80.768965,61.494328 Z"
       id="path886"
       sodipodi:nodetypes="cccc" />
    <path
       style="fill:#2d1d0c;fill-opacity:1;stroke:none;stroke-width:0.384441px;stroke-linecap:butt;stroke-linejoin:miter;stroke-opacity:1"
       d="m 86.150311,63.309682 -8.21582,-18.03024 2.834474,16.214886 z"
       id="path888"
       sodipodi:nodetypes="cccc" />
    <path
       style="fill:#422e15;fill-opacity:1;stroke:none;stroke-width:0.428944px;stroke-linecap:butt;stroke-linejoin:miter;stroke-opacity:1"
       d="m 77.934491,45.279439 -3.18605,-6.818733 5.837023,0.908853 z"
       id="path890" />
    <g
       inkscape:label="Layer 1"
       id="layer1-6"
       transform="matrix(0.42511458,0,0,0.44242449,98.651794,95.57911)">
      <path
         style="fill:#aa0000;fill-opacity:1;stroke:none;stroke-width:0.264583px;stroke-linecap:butt;stroke-linejoin:miter;stroke-opacity:1"
         d="M 86.096753,127.17079 71.000489,114.42806 c -0.541288,-6.10798 -0.567398,-12.22533 -0.617538,-18.35017 l 6.62985,11.11067 c 0.849445,-5.38929 1.808262,-10.759752 2.754316,-16.132617 4.222836,-3.804913 8.481293,-7.56973 12.73661,-11.338171 l 10.162553,-1.396724 c -2.61552,2.682933 -5.468241,5.074751 -8.362554,7.441351 0.388098,4.761521 0.691541,9.528978 1.007684,14.295631 l 4.54627,5.26997 1.98815,-2.69515 c -0.27891,-3.105933 -1.06574,-6.074617 -1.874334,-9.069396 2.606454,1.689187 4.554954,3.932226 6.576864,6.237428 0.84693,4.928728 1.63785,9.866608 2.43459,14.803598 l -22.886197,12.56631"
         id="path3848"
         sodipodi:nodetypes="ccccccccccccccc" />
      <path
         style="fill:#552200;fill-opacity:1;stroke:none;stroke-width:0.191927px;stroke-linecap:butt;stroke-linejoin:miter;stroke-opacity:1"
         d="m 55.689461,122.56926 -0.377288,10.34798 35.699181,-5.5758 z"
         id="path3281" />
      <path
         style="fill:#3d1400;fill-opacity:1;stroke:none;stroke-width:0.309493px;stroke-linecap:butt;stroke-linejoin:miter;stroke-opacity:1"
         d="m 55.312172,132.91724 0.206423,-4.74771 25.212668,0.83726 z"
         id="path3894"
         sodipodi:nodetypes="cccc" />
      <path
         style="fill:#552200;fill-opacity:1;stroke:none;stroke-width:0.191927px;stroke-linecap:butt;stroke-linejoin:miter;stroke-opacity:1"
         d="m 119.32118,122.05374 0.3773,10.34798 -35.699188,-5.5758 z"
         id="path3844" />
      <path
         style="fill:#8a0000;fill-opacity:1;stroke:none;stroke-width:0.264583px;stroke-linecap:butt;stroke-linejoin:miter;stroke-opacity:1"
         d="m 77.012799,107.18856 -6.012312,7.2395 -0.617538,-18.350172 z"
         id="path3856" />
      <path
         style="fill:#8a0000;fill-opacity:1;stroke:none;stroke-width:0.264583px;stroke-linecap:butt;stroke-linejoin:miter;stroke-opacity:1"
         d="m 102.66628,78.321047 -8.362556,7.441351 -1.799997,-6.044626 z"
         id="path3858" />
      <path
         style="fill:#8a0000;fill-opacity:1;stroke:none;stroke-width:0.264583px;stroke-linecap:butt;stroke-linejoin:miter;stroke-opacity:1"
         d="m 99.971494,93.563452 1.874336,9.069398 4.70253,-2.83197 z"
         id="path3860" />
      <path
         style="fill:#a80000;fill-opacity:1;stroke:none;stroke-width:0.264583px;stroke-linecap:butt;stroke-linejoin:miter;stroke-opacity:1"
         d="M 79.767117,91.055943 94.303722,85.762398 92.503727,79.717772 Z"
         id="path3862" />
      <path
         style="fill:#c70000;fill-opacity:1;stroke:none;stroke-width:0.264583px;stroke-linecap:butt;stroke-linejoin:miter;stroke-opacity:1"
         d="m 94.303724,85.762398 -14.536607,5.293545 15.544292,9.002087 z"
         id="path3864" />
      <path
         style="fill:#db0000;fill-opacity:1;stroke:none;stroke-width:0.264583px;stroke-linecap:butt;stroke-linejoin:miter;stroke-opacity:1"
         d="m 79.767117,91.055943 -2.754318,16.132617 18.29861,-7.13053 z"
         id="path3866" />
      <path
         style="fill:#e50f00;fill-opacity:1;stroke:none;stroke-width:0.264583px;stroke-linecap:butt;stroke-linejoin:miter;stroke-opacity:1"
         d="m 95.311409,100.05803 4.546269,5.26997 -4.326448,16.87424 z"
         id="path3868" />
      <path
         style="fill:#fa1900;fill-opacity:1;stroke:none;stroke-width:0.264583px;stroke-linecap:butt;stroke-linejoin:miter;stroke-opacity:1"
         d="m 95.311409,100.05803 -18.29861,7.13053 18.50649,3.80014 z"
         id="path3870"
         sodipodi:nodetypes="cccc" />
      <path
         style="fill:#db0000;fill-opacity:1;stroke:none;stroke-width:0.264583px;stroke-linecap:butt;stroke-linejoin:miter;stroke-opacity:1"
         d="m 77.012799,107.18856 -6.012312,7.2395 8.207425,7.16484 z"
         id="path3872" />
      <path
         style="fill:#ff3305;fill-opacity:1;stroke:none;stroke-width:0.264583px;stroke-linecap:butt;stroke-linejoin:miter;stroke-opacity:1"
         d="m 77.012799,107.18856 2.195113,14.40434 16.311377,-10.6042 z"
         id="path3874"
         sodipodi:nodetypes="cccc" />
      <path
         style="fill:#ff5b1a;fill-opacity:1;stroke:none;stroke-width:0.264583px;stroke-linecap:butt;stroke-linejoin:miter;stroke-opacity:1"
         d="m 95.519289,110.9887 0.01193,11.21354 -16.323318,-0.60934 z"
         id="path3876" />
      <path
         style="fill:#fac400;fill-opacity:1;stroke:none;stroke-width:0.112486px;stroke-linecap:butt;stroke-linejoin:miter;stroke-opacity:1"
         d="m 86.096753,127.17079 -6.88884,-5.57789 c -0.153306,-6.97534 0,0 -0.153306,-6.97534 l 2.818656,4.72366 c 0.361138,-2.29124 0.768775,-4.57447 1.170987,-6.85872 1.795322,-1.61765 3.605789,-3.21824 5.414921,-4.82038 l 4.320571,-0.59381 c -1.111979,1.14063 -2.324802,2.15751 -3.555308,3.16366 0.164998,2.02434 0.294006,4.05121 0.428413,6.07773 l 1.932829,2.24051 0.845254,-1.14583 c -0.118577,-1.32048 -0.453095,-2.5826 -0.796866,-3.85582 1.108124,0.71815 1.936522,1.67177 2.796129,2.65182 0.360069,2.09543 0.762307,3.90292 1.101038,6.00186 l -9.434478,4.96855"
         id="path3854"
         sodipodi:nodetypes="ccccccccccccccc" />
      <path
         style="fill:#ffef4c;fill-opacity:1;stroke:none;stroke-width:0.264583px;stroke-linecap:butt;stroke-linejoin:miter;stroke-opacity:1"
         d="m 80.749343,122.81061 12.747191,0.45213 -7.399782,3.90805 z"
         id="path3878" />
      <path
         style="fill:#ffef42;fill-opacity:1;stroke:none;stroke-width:0.264583px;stroke-linecap:butt;stroke-linejoin:miter;stroke-opacity:1"
         d="m 81.873261,119.34122 -2.665362,2.25168 1.541444,1.21771 z"
         id="path3880" />
      <path
         style="fill:#ffef24;fill-opacity:1;stroke:none;stroke-width:0.264583px;stroke-linecap:butt;stroke-linejoin:miter;stroke-opacity:1"
         d="m 83.044249,112.4825 -2.294906,10.32811 c 0,0 5.206342,0.66856 5.206342,0.38863 0,-0.27994 -2.911436,-10.71674 -2.911436,-10.71674 z"
         id="path3882"
         sodipodi:nodetypes="ccsc" />
      <path
         style="fill:none;stroke:none;stroke-width:0.264583px;stroke-linecap:butt;stroke-linejoin:miter;stroke-opacity:1"
         d="m 92.77974,107.06831 -3.555306,3.16366 -0.765265,-2.56985 z"
         id="path3884" />
      <path
         style="fill:#ffef24;fill-opacity:1;stroke:none;stroke-width:0.264583px;stroke-linecap:butt;stroke-linejoin:miter;stroke-opacity:1"
         d="m 88.459169,107.66212 0.765265,2.56985 c 0,0 -6.180188,2.25053 -6.180185,2.25053 0,0 5.41492,-4.82038 5.41492,-4.82038 z"
         id="path3886" />
      <path
         style="fill:#fff538;fill-opacity:1;stroke:none;stroke-width:0.264583px;stroke-linecap:butt;stroke-linejoin:miter;stroke-opacity:1"
         d="m 83.044249,112.4825 6.180185,-2.25053 0.908114,12.91959 z"
         id="path3888"
         sodipodi:nodetypes="cccc" />
      <path
         style="fill:#fff766;fill-opacity:1;stroke:none;stroke-width:0.264583px;stroke-linecap:butt;stroke-linejoin:miter;stroke-opacity:1"
         d="M 90.132547,123.15156 83.044249,112.4825 85.94812,123.23351 Z"
         id="path3890"
         sodipodi:nodetypes="cccc" />
      <path
         style="fill:#ffef24;fill-opacity:1;stroke:none;stroke-width:0.264583px;stroke-linecap:butt;stroke-linejoin:miter;stroke-opacity:1"
         d="m 91.585676,118.55021 -1.453129,4.60135 3.363987,0.11118 z"
         id="path3892" />
      <path
         style="fill:#3d1400;fill-opacity:1;stroke:none;stroke-width:0.309493px;stroke-linecap:butt;stroke-linejoin:miter;stroke-opacity:1"
         d="m 119.69848,132.40172 -0.20642,-4.74771 -23.688563,0.95601 z"
         id="path3896"
         sodipodi:nodetypes="cccc" />
      <g
         inkscape:label="Layer 1"
         id="layer1-5"
         transform="matrix(2.352307,0,0,2.2602727,-62.529787,-510.1179)">
        <path
           style="fill:#999999;stroke:none;stroke-width:0.342879px;stroke-linecap:butt;stroke-linejoin:miter;stroke-opacity:1"
           d="m 57.559002,236.29781 -3.785308,14.9771 24.0021,1.25404 z"
           id="path51231" />
        <path
           style="fill:#b3b3b3;stroke:none;stroke-width:0.303764px;stroke-linecap:butt;stroke-linejoin:miter;stroke-opacity:1"
           d="m 58.855996,229.35714 25.395883,16.30136 1.57636,-29.71451 z"
           id="path51233" />
        <path
           style="fill:#cccccc;stroke:none;stroke-width:0.387803px;stroke-linecap:butt;stroke-linejoin:miter;stroke-opacity:1"
           d="m 91.604812,201.37688 -46.494978,28.13166 5.774974,-48.16905 z"
           id="path51235" />
      </g>
    </g>
  </g>
</svg>
