<?xml version="1.0" encoding="UTF-8" standalone="no"?>
<svg
   xmlns:dc="http://purl.org/dc/elements/1.1/"
   xmlns:cc="http://creativecommons.org/ns#"
   xmlns:rdf="http://www.w3.org/1999/02/22-rdf-syntax-ns#"
   xmlns:svg="http://www.w3.org/2000/svg"
   xmlns="http://www.w3.org/2000/svg"
   xmlns:sodipodi="http://sodipodi.sourceforge.net/DTD/sodipodi-0.dtd"
   xmlns:inkscape="http://www.inkscape.org/namespaces/inkscape"
   width="85.578537mm"
   height="58.973991mm"
   viewBox="0 0 85.578537 58.973991"
   version="1.1"
   id="svg3279"
   inkscape:version="1.0.1 (0767f8302a, 2020-10-17)"
   sodipodi:docname="fire_pit.svg">
  <defs
     id="defs3273">
    <filter
       style="color-interpolation-filters:sRGB"
       inkscape:label="Color Shift"
       id="filter49204">
      <feColorMatrix
         type="hueRotate"
         values="0"
         result="color1"
         id="feColorMatrix49200" />
      <feColorMatrix
         type="saturate"
         values="0.84793"
         result="color2"
         id="feColorMatrix49202" />
    </filter>
  </defs>
  <sodipodi:namedview
     id="base"
     pagecolor="#ffffff"
     bordercolor="#666666"
     borderopacity="1.0"
     inkscape:pageopacity="0.0"
     inkscape:pageshadow="2"
     inkscape:zoom="1.4142136"
     inkscape:cx="157.95313"
     inkscape:cy="165.79039"
     inkscape:document-units="mm"
     inkscape:current-layer="layer5"
     inkscape:document-rotation="0"
     showgrid="false"
     inkscape:window-width="1853"
     inkscape:window-height="1025"
     inkscape:window-x="67"
     inkscape:window-y="27"
     inkscape:window-maximized="1" />
  <metadata
     id="metadata3276">
    <rdf:RDF>
      <cc:Work
         rdf:about="">
        <dc:format>image/svg+xml</dc:format>
        <dc:type
           rdf:resource="http://purl.org/dc/dcmitype/StillImage" />
        <dc:title></dc:title>
      </cc:Work>
    </rdf:RDF>
  </metadata>
  <g
     inkscape:label="Layer 1"
     inkscape:groupmode="layer"
     id="layer1"
     transform="translate(-121.24599,-129.52768)">
    <path
       style="fill:#aa0000;fill-opacity:1;stroke:none;stroke-width:0.264583px;stroke-linecap:butt;stroke-linejoin:miter;stroke-opacity:1"
       d="m 160.66704,178.37742 -15.09627,-12.74273 c -0.54128,-6.10798 -0.56739,-12.22533 -0.61753,-18.35017 l 6.62985,11.11067 c 0.84944,-5.38929 1.80826,-10.75975 2.75431,-16.13262 4.22284,-3.80491 8.4813,-7.56973 12.73661,-11.33817 l 10.16256,-1.39672 c -2.61552,2.68293 -5.46825,5.07475 -8.36256,7.44135 0.3881,4.76152 0.69154,9.52898 1.00769,14.29563 l 4.54627,5.26997 1.98815,-2.69515 c -0.27891,-3.10593 -1.06574,-6.07462 -1.87434,-9.0694 2.60646,1.68919 4.55496,3.93223 6.57687,6.23743 0.84693,4.92873 1.63785,9.86661 2.43459,14.8036 l -22.8862,12.56631"
       id="path3848"
       sodipodi:nodetypes="ccccccccccccccc" />
    <path
       style="fill:#8a0000;fill-opacity:1;stroke:none;stroke-width:0.264583px;stroke-linecap:butt;stroke-linejoin:miter;stroke-opacity:1"
       d="m 151.58308,158.39519 -6.01231,7.2395 -0.61754,-18.35017 z"
       id="path3856" />
    <path
       style="fill:#8a0000;fill-opacity:1;stroke:none;stroke-width:0.264583px;stroke-linecap:butt;stroke-linejoin:miter;stroke-opacity:1"
       d="m 177.23657,129.52768 -8.36256,7.44135 -1.8,-6.04463 z"
       id="path3858" />
    <path
       style="fill:#8a0000;fill-opacity:1;stroke:none;stroke-width:0.264583px;stroke-linecap:butt;stroke-linejoin:miter;stroke-opacity:1"
       d="m 174.54178,144.77008 1.87434,9.0694 4.70253,-2.83197 z"
       id="path3860" />
    <path
       style="fill:#a80000;fill-opacity:1;stroke:none;stroke-width:0.264583px;stroke-linecap:butt;stroke-linejoin:miter;stroke-opacity:1"
       d="m 154.3374,142.26257 14.53661,-5.29354 -1.8,-6.04463 z"
       id="path3862" />
    <path
       style="fill:#c70000;fill-opacity:1;stroke:none;stroke-width:0.264583px;stroke-linecap:butt;stroke-linejoin:miter;stroke-opacity:1"
       d="m 168.87401,136.96903 -14.53661,5.29354 15.54429,9.00209 z"
       id="path3864" />
    <path
       style="fill:#db0000;fill-opacity:1;stroke:none;stroke-width:0.264583px;stroke-linecap:butt;stroke-linejoin:miter;stroke-opacity:1"
       d="m 154.3374,142.26257 -2.75432,16.13262 18.29861,-7.13053 z"
       id="path3866" />
    <path
       style="fill:#e50f00;fill-opacity:1;stroke:none;stroke-width:0.264583px;stroke-linecap:butt;stroke-linejoin:miter;stroke-opacity:1"
       d="m 169.88169,151.26466 4.54627,5.26997 -4.32644,16.87424 z"
       id="path3868" />
    <path
       style="fill:#fa1900;fill-opacity:1;stroke:none;stroke-width:0.264583px;stroke-linecap:butt;stroke-linejoin:miter;stroke-opacity:1"
       d="m 169.88169,151.26466 -18.29861,7.13053 18.50649,3.80014 z"
       id="path3870"
       sodipodi:nodetypes="cccc" />
    <path
       style="fill:#db0000;fill-opacity:1;stroke:none;stroke-width:0.264583px;stroke-linecap:butt;stroke-linejoin:miter;stroke-opacity:1"
       d="m 151.58308,158.39519 -6.01231,7.2395 8.20743,7.16484 z"
       id="path3872" />
    <path
       style="fill:#ff3305;fill-opacity:1;stroke:none;stroke-width:0.264583px;stroke-linecap:butt;stroke-linejoin:miter;stroke-opacity:1"
       d="m 151.58308,158.39519 2.19512,14.40434 16.31137,-10.6042 z"
       id="path3874"
       sodipodi:nodetypes="cccc" />
    <path
       style="fill:#ff5b1a;fill-opacity:1;stroke:none;stroke-width:0.264583px;stroke-linecap:butt;stroke-linejoin:miter;stroke-opacity:1"
       d="m 170.08957,162.19533 0.0119,11.21354 -16.32331,-0.60934 z"
       id="path3876" />
    <path
       style="fill:#fac400;fill-opacity:1;stroke:none;stroke-width:0.112486px;stroke-linecap:butt;stroke-linejoin:miter;stroke-opacity:1"
       d="m 160.66704,178.37742 -6.88884,-5.57789 c -0.15331,-6.97534 0,0 -0.15331,-6.97534 l 2.81866,4.72366 c 0.36114,-2.29124 0.76877,-4.57447 1.17099,-6.85872 1.79532,-1.61765 3.60578,-3.21824 5.41492,-4.82038 l 4.32057,-0.59381 c -1.11198,1.14063 -2.3248,2.15751 -3.55531,3.16366 0.165,2.02434 0.29401,4.05121 0.42841,6.07773 l 1.93283,2.24051 0.84526,-1.14583 c -0.11858,-1.32048 -0.4531,-2.5826 -0.79687,-3.85582 1.10812,0.71815 1.93652,1.67177 2.79613,2.65182 0.36007,2.09543 0.76231,3.90292 1.10104,6.00186 l -9.43448,4.96855"
       id="path3854"
       sodipodi:nodetypes="ccccccccccccccc" />
    <path
       style="fill:#ffef4c;fill-opacity:1;stroke:none;stroke-width:0.264583px;stroke-linecap:butt;stroke-linejoin:miter;stroke-opacity:1"
       d="m 155.31963,174.01724 12.74719,0.45213 -7.39978,3.90805 z"
       id="path3878" />
    <path
       style="fill:#ffef42;fill-opacity:1;stroke:none;stroke-width:0.264583px;stroke-linecap:butt;stroke-linejoin:miter;stroke-opacity:1"
       d="m 156.44355,170.54785 -2.66537,2.25168 1.54145,1.21771 z"
       id="path3880" />
    <path
       style="fill:#ffef24;fill-opacity:1;stroke:none;stroke-width:0.264583px;stroke-linecap:butt;stroke-linejoin:miter;stroke-opacity:1"
       d="m 157.61453,163.68913 -2.2949,10.32811 c 0,0 5.20634,0.66856 5.20634,0.38863 0,-0.27994 -2.91144,-10.71674 -2.91144,-10.71674 z"
       id="path3882"
       sodipodi:nodetypes="ccsc" />
    <path
       style="fill:none;stroke:none;stroke-width:0.264583px;stroke-linecap:butt;stroke-linejoin:miter;stroke-opacity:1"
       d="m 167.35003,158.27494 -3.55531,3.16366 -0.76527,-2.56985 z"
       id="path3884" />
    <path
       style="fill:#ffef24;fill-opacity:1;stroke:none;stroke-width:0.264583px;stroke-linecap:butt;stroke-linejoin:miter;stroke-opacity:1"
       d="m 163.02945,158.86875 0.76527,2.56985 c 0,0 -6.18019,2.25053 -6.18019,2.25053 0,0 5.41492,-4.82038 5.41492,-4.82038 z"
       id="path3886" />
    <path
       style="fill:#fff538;fill-opacity:1;stroke:none;stroke-width:0.264583px;stroke-linecap:butt;stroke-linejoin:miter;stroke-opacity:1"
       d="m 157.61453,163.68913 6.18019,-2.25053 0.90811,12.91959 z"
       id="path3888"
       sodipodi:nodetypes="cccc" />
    <path
       style="fill:#fff766;fill-opacity:1;stroke:none;stroke-width:0.264583px;stroke-linecap:butt;stroke-linejoin:miter;stroke-opacity:1"
       d="m 164.70283,174.35819 -7.0883,-10.66906 2.90388,10.75101 z"
       id="path3890"
       sodipodi:nodetypes="cccc" />
    <path
       style="fill:#ffef24;fill-opacity:1;stroke:none;stroke-width:0.264583px;stroke-linecap:butt;stroke-linejoin:miter;stroke-opacity:1"
       d="m 166.15596,169.75684 -1.45313,4.60135 3.36399,0.11118 z"
       id="path3892" />
    <path
       style="fill:none;fill-opacity:1;stroke:#000000;stroke-width:1.1;stroke-linejoin:round;stroke-miterlimit:4;stroke-dasharray:none;stroke-opacity:1"
       d="m 121.24599,164.18874 h 18.94383 l 20.46547,17.16494 28.86658,-16.07658 h 17.30266"
       id="path1881"
       sodipodi:nodetypes="ccccc" />
    <g
       inkscape:groupmode="layer"
       id="layer5"
       inkscape:label="Layer 2">
      <path
         style="fill:none;fill-opacity:1;stroke:#000000;stroke-width:0.967072;stroke-linejoin:round;stroke-miterlimit:4;stroke-dasharray:none;stroke-opacity:1"
         d="m 132.37589,164.13521 -4.43018,6.88638"
         id="path2141" />
      <path
         style="fill:none;fill-opacity:1;stroke:#000000;stroke-width:0.967072;stroke-linejoin:round;stroke-miterlimit:4;stroke-dasharray:none;stroke-opacity:1"
         d="m 138.65506,164.13521 -4.43018,6.88638"
         id="path2143" />
      <path
         style="fill:none;fill-opacity:1;stroke:#000000;stroke-width:0.967072;stroke-linejoin:round;stroke-miterlimit:4;stroke-dasharray:none;stroke-opacity:1"
         d="m 156.32546,177.74429 -4.43018,6.88638"
         id="path2151" />
      <path
         style="fill:none;fill-opacity:1;stroke:#000000;stroke-width:0.967072;stroke-linejoin:round;stroke-miterlimit:4;stroke-dasharray:none;stroke-opacity:1"
         d="m 192.0604,165.12706 -4.43018,6.88638"
         id="path2159" />
      <path
         style="fill:none;fill-opacity:1;stroke:#000000;stroke-width:0.967072;stroke-linejoin:round;stroke-miterlimit:4;stroke-dasharray:none;stroke-opacity:1"
         d="m 160.65529,181.35368 -4.43018,6.88638"
         id="path2322" />
      <path
         style="fill:none;fill-opacity:1;stroke:#000000;stroke-width:0.967072;stroke-linejoin:round;stroke-miterlimit:4;stroke-dasharray:none;stroke-opacity:1"
         d="m 151.99563,174.1349 -4.43018,6.88638"
         id="path2336" />
      <path
         style="fill:none;fill-opacity:1;stroke:#000000;stroke-width:0.967072;stroke-linejoin:round;stroke-miterlimit:4;stroke-dasharray:none;stroke-opacity:1"
         d="m 147.6658,170.52551 -4.43018,6.88638"
         id="path2340" />
      <path
         style="fill:none;fill-opacity:1;stroke:#000000;stroke-width:0.967072;stroke-linejoin:round;stroke-miterlimit:4;stroke-dasharray:none;stroke-opacity:1"
         d="m 143.33597,166.91612 -4.43018,6.88638"
         id="path2344" />
      <path
         style="fill:none;fill-opacity:1;stroke:#000000;stroke-width:0.967072;stroke-linejoin:round;stroke-miterlimit:4;stroke-dasharray:none;stroke-opacity:1"
         d="m 126.09672,164.13521 -4.43018,6.88638"
         id="path2350" />
      <path
         style="fill:none;fill-opacity:1;stroke:#000000;stroke-width:0.967072;stroke-linejoin:round;stroke-miterlimit:4;stroke-dasharray:none;stroke-opacity:1"
         d="m 198.33957,165.12706 -4.43018,6.88638"
         id="path2354" />
      <path
         style="fill:none;fill-opacity:1;stroke:#000000;stroke-width:0.967072;stroke-linejoin:round;stroke-miterlimit:4;stroke-dasharray:none;stroke-opacity:1"
         d="m 204.61874,165.02706 -4.43018,6.88638"
         id="path2356" />
      <path
         style="fill:none;fill-opacity:1;stroke:#000000;stroke-width:0.967072;stroke-linejoin:round;stroke-miterlimit:4;stroke-dasharray:none;stroke-opacity:1"
         d="m 171.00281,175.43084 -4.43018,6.88638"
         id="path2364" />
      <path
         style="fill:none;fill-opacity:1;stroke:#000000;stroke-width:0.967072;stroke-linejoin:round;stroke-miterlimit:4;stroke-dasharray:none;stroke-opacity:1"
         d="m 181.35033,169.708 -4.43018,6.88638"
         id="path2368" />
    </g>
    <g
       inkscape:label="Layer 1"
       id="layer1-53"
       transform="translate(212.54334,-122.56677)">
      <path
         style="fill:#5c4326;fill-opacity:1;stroke:none;stroke-width:0.086743px;stroke-linecap:butt;stroke-linejoin:miter;stroke-opacity:1"
         d="m -82.912311,270.12532 -0.492077,-0.12806 0.86115,0.69634 c -0.08666,-0.19936 -0.03846,-0.43552 -0.369073,-0.56828 z"
         id="path898"
         sodipodi:nodetypes="cccc" />
      <path
         style="fill:#5c4326;fill-opacity:1;stroke:none;stroke-width:0.086743px;stroke-linecap:butt;stroke-linejoin:miter;stroke-opacity:1"
         d="m -81.50734,270.07807 0.395734,-0.24786 -0.502503,0.72115 c -0.0073,-0.15256 -0.05934,-0.29966 0.106769,-0.47329 z"
         id="path902"
         sodipodi:nodetypes="cccc" />
      <path
         style="fill:#422e15;fill-opacity:1;stroke:none;stroke-width:0.0787143px;stroke-linecap:butt;stroke-linejoin:miter;stroke-opacity:1"
         d="m -81.536357,277.39916 3.007726,4.56123 c -0.297847,0.28454 -0.606949,0.55551 -1.232113,0.44578 z"
         id="path849"
         sodipodi:nodetypes="cccc" />
      <path
         style="fill:#2d1d0c;fill-opacity:1;stroke:none;stroke-width:0.0787143px;stroke-linecap:butt;stroke-linejoin:miter;stroke-opacity:0"
         d="m -78.528631,281.96039 -1.234107,3.8375 0.002,-3.39172 z"
         id="path851" />
      <path
         style="fill:#422e15;fill-opacity:1;stroke:none;stroke-width:0.0787143px;stroke-linecap:butt;stroke-linejoin:miter;stroke-opacity:1"
         d="m -79.762738,285.79789 1.911702,0.0168 -0.361598,0.61246 z"
         id="path853" />
      <path
         style="fill:#422e15;fill-opacity:1;stroke:none;stroke-width:0.0828214px;stroke-linecap:butt;stroke-linejoin:miter;stroke-opacity:1"
         d="m -81.536357,277.39916 0.128076,5.01234 c -0.391062,0.13739 -0.732604,0.51446 -1.297044,-0.18768 z"
         id="path855"
         sodipodi:nodetypes="cccc" />
      <path
         style="fill:#2d1d0c;fill-opacity:1;stroke:none;stroke-width:0.0828214px;stroke-linecap:butt;stroke-linejoin:miter;stroke-opacity:1"
         d="m -81.408287,282.4115 -3.122373,2.81388 1.82533,-3.00156 z"
         id="path857" />
      <path
         style="fill:#422e15;fill-opacity:1;stroke:none;stroke-width:0.0828214px;stroke-linecap:butt;stroke-linejoin:miter;stroke-opacity:1"
         d="m -84.53066,285.22538 1.417046,0.5575 -0.681282,0.46521 z"
         id="path859" />
      <path
         style="fill:#2d1d0c;fill-opacity:1;stroke:none;stroke-width:0.0949335px;stroke-linecap:butt;stroke-linejoin:miter;stroke-opacity:1"
         d="m -81.40139,278.29868 2.001038,-6.69644 -5.406216,0.55959 z"
         id="path865" />
      <path
         style="fill:#2d1d0c;fill-opacity:1;stroke:none;stroke-width:0.0802473px;stroke-linecap:butt;stroke-linejoin:miter;stroke-opacity:1"
         d="m -81.387645,269.3667 -0.452581,2.437 -1.561039,-2.46369 z"
         id="path867" />
      <path
         style="fill:#422e15;fill-opacity:1;stroke:none;stroke-width:0.0802467px;stroke-linecap:butt;stroke-linejoin:miter;stroke-opacity:1"
         d="m -84.806568,272.16183 -1.914877,-2.3053 c -0.256528,0.0797 -0.441492,0.33816 -0.606635,0.64619 z"
         id="path875"
         sodipodi:nodetypes="cccc" />
      <path
         style="fill:#2d1d0c;fill-opacity:1;stroke:none;stroke-width:0.0802467px;stroke-linecap:butt;stroke-linejoin:miter;stroke-opacity:1"
         d="m -86.721445,269.85653 -0.384541,-2.81555 -0.222094,3.46174 z"
         id="path877" />
      <path
         style="fill:#422e15;fill-opacity:1;stroke:none;stroke-width:0.0802467px;stroke-linecap:butt;stroke-linejoin:miter;stroke-opacity:1"
         d="m -87.105986,267.04098 0.425892,-1.34208 -1.060786,0.30996 z"
         id="path879" />
      <path
         style="fill:#422e15;fill-opacity:1;stroke:none;stroke-width:0.0688569px;stroke-linecap:butt;stroke-linejoin:miter;stroke-opacity:1"
         d="m -79.400352,271.60224 2.282794,-2.88117 c -0.352485,-0.19187 -0.637181,-0.2046 -0.901156,0.13808 z"
         id="path886"
         sodipodi:nodetypes="cccc" />
      <path
         style="fill:#2d1d0c;fill-opacity:1;stroke:none;stroke-width:0.0617132px;stroke-linecap:butt;stroke-linejoin:miter;stroke-opacity:1"
         d="m -77.117558,268.72107 -2.501265,-1.96474 1.600109,2.10282 z"
         id="path888"
         sodipodi:nodetypes="cccc" />
      <path
         style="fill:#422e15;fill-opacity:1;stroke:none;stroke-width:0.0688569px;stroke-linecap:butt;stroke-linejoin:miter;stroke-opacity:1"
         d="m -79.618823,266.75633 -0.957193,-0.7372 0.899262,-0.30095 z"
         id="path890" />
      <path
         style="fill:#5c4326;fill-opacity:1;stroke:none;stroke-width:0.0959783px;stroke-linecap:butt;stroke-linejoin:miter;stroke-opacity:1"
         d="m -13.041514,269.2505 0.544466,-0.1417 -0.952834,0.77048 c 0.09589,-0.22058 0.04255,-0.48189 0.408368,-0.62878 z"
         id="path2105"
         sodipodi:nodetypes="cccc" />
      <path
         style="fill:#5c4326;fill-opacity:1;stroke:none;stroke-width:0.0959783px;stroke-linecap:butt;stroke-linejoin:miter;stroke-opacity:1"
         d="m -14.596068,269.19822 -0.437867,-0.27425 0.556003,0.79793 c 0.008,-0.1688 0.06566,-0.33157 -0.118136,-0.52368 z"
         id="path2107"
         sodipodi:nodetypes="cccc" />
      <path
         style="fill:#422e15;fill-opacity:1;stroke:none;stroke-width:0.0870948px;stroke-linecap:butt;stroke-linejoin:miter;stroke-opacity:1"
         d="m -14.563962,277.29876 -3.32795,5.04685 c 0.329558,0.31483 0.671569,0.61466 1.363292,0.49324 z"
         id="path2109"
         sodipodi:nodetypes="cccc" />
      <path
         style="fill:#2d1d0c;fill-opacity:1;stroke:none;stroke-width:0.0870948px;stroke-linecap:butt;stroke-linejoin:miter;stroke-opacity:0"
         d="m -17.891912,282.34561 1.365499,4.24607 -0.0022,-3.75283 z"
         id="path2111" />
      <path
         style="fill:#422e15;fill-opacity:1;stroke:none;stroke-width:0.0870948px;stroke-linecap:butt;stroke-linejoin:miter;stroke-opacity:1"
         d="m -16.526413,286.59168 -2.115235,0.0186 0.400096,0.67767 z"
         id="path2113" />
      <path
         style="fill:#422e15;fill-opacity:1;stroke:none;stroke-width:0.0916391px;stroke-linecap:butt;stroke-linejoin:miter;stroke-opacity:1"
         d="m -14.563962,277.29876 -0.141712,5.54598 c 0.432697,0.15202 0.810602,0.56924 1.435136,-0.20765 z"
         id="path2115"
         sodipodi:nodetypes="cccc" />
      <path
         style="fill:#2d1d0c;fill-opacity:1;stroke:none;stroke-width:0.0916391px;stroke-linecap:butt;stroke-linejoin:miter;stroke-opacity:1"
         d="m -14.705668,282.84474 3.454803,3.11347 -2.019667,-3.32112 z"
         id="path2117" />
      <path
         style="fill:#422e15;fill-opacity:1;stroke:none;stroke-width:0.0916391px;stroke-linecap:butt;stroke-linejoin:miter;stroke-opacity:1"
         d="m -11.250865,285.95821 -1.567915,0.61686 0.753816,0.51473 z"
         id="path2119" />
      <path
         style="fill:#2d1d0c;fill-opacity:1;stroke:none;stroke-width:0.105041px;stroke-linecap:butt;stroke-linejoin:miter;stroke-opacity:1"
         d="m -14.713299,278.29405 -2.214082,-7.40939 5.9818,0.61917 z"
         id="path2121" />
      <path
         style="fill:#2d1d0c;fill-opacity:1;stroke:none;stroke-width:0.0887909px;stroke-linecap:butt;stroke-linejoin:miter;stroke-opacity:1"
         d="m -14.728507,268.41111 0.500766,2.69645 1.727238,-2.72598 z"
         id="path2123" />
      <path
         style="fill:#422e15;fill-opacity:1;stroke:none;stroke-width:0.0887903px;stroke-linecap:butt;stroke-linejoin:miter;stroke-opacity:1"
         d="m -10.945581,271.50383 2.1187474,-2.55074 c 0.2838406,0.0882 0.4884963,0.37416 0.6712221,0.71498 z"
         id="path2125"
         sodipodi:nodetypes="cccc" />
      <path
         style="fill:#2d1d0c;fill-opacity:1;stroke:none;stroke-width:0.0887903px;stroke-linecap:butt;stroke-linejoin:miter;stroke-opacity:1"
         d="m -8.8268336,268.95309 0.425482,-3.11531 0.2457401,3.83029 z"
         id="path2127" />
      <path
         style="fill:#422e15;fill-opacity:1;stroke:none;stroke-width:0.0887903px;stroke-linecap:butt;stroke-linejoin:miter;stroke-opacity:1"
         d="m -8.4013516,265.83778 -0.4712349,-1.48497 1.1737241,0.34296 z"
         id="path2129" />
      <path
         style="fill:#422e15;fill-opacity:1;stroke:none;stroke-width:0.0761878px;stroke-linecap:butt;stroke-linejoin:miter;stroke-opacity:1"
         d="m -16.927381,270.88466 -2.525836,-3.18792 c 0.390012,-0.21229 0.705019,-0.22638 0.997099,0.15278 z"
         id="path2131"
         sodipodi:nodetypes="cccc" />
      <path
         style="fill:#2d1d0c;fill-opacity:1;stroke:none;stroke-width:0.0682836px;stroke-linecap:butt;stroke-linejoin:miter;stroke-opacity:1"
         d="m -19.453217,267.69674 2.767566,-2.17392 -1.770467,2.3267 z"
         id="path2133"
         sodipodi:nodetypes="cccc" />
      <path
         style="fill:#422e15;fill-opacity:1;stroke:none;stroke-width:0.0761878px;stroke-linecap:butt;stroke-linejoin:miter;stroke-opacity:1"
         d="m -16.685651,265.52282 1.059103,-0.81569 -0.995004,-0.33299 z"
         id="path2135" />
    </g>
  </g>
</svg>
