<?xml version="1.0" encoding="UTF-8" standalone="no"?>
<svg
   xmlns:dc="http://purl.org/dc/elements/1.1/"
   xmlns:cc="http://creativecommons.org/ns#"
   xmlns:rdf="http://www.w3.org/1999/02/22-rdf-syntax-ns#"
   xmlns:svg="http://www.w3.org/2000/svg"
   xmlns="http://www.w3.org/2000/svg"
   xmlns:sodipodi="http://sodipodi.sourceforge.net/DTD/sodipodi-0.dtd"
   xmlns:inkscape="http://www.inkscape.org/namespaces/inkscape"
   width="172.28696mm"
   height="128.68965mm"
   viewBox="0 0 172.28696 128.68965"
   version="1.1"
   id="svg34"
   inkscape:version="1.0.1 (0767f8302a, 2020-10-17)"
   sodipodi:docname="ochre_painter.svg">
  <defs
     id="defs28">
    <clipPath
       clipPathUnits="userSpaceOnUse"
       id="clipPath104">
      <rect
         style="fill:#141839;stroke-width:0.642001;stroke-linejoin:round"
         id="rect106"
         width="189.70305"
         height="175.12276"
         x="11.176064"
         y="40.334206" />
    </clipPath>
  </defs>
  <sodipodi:namedview
     id="base"
     pagecolor="#ffffff"
     bordercolor="#666666"
     borderopacity="1.0"
     inkscape:pageopacity="0.0"
     inkscape:pageshadow="2"
     inkscape:zoom="0.91453528"
     inkscape:cx="452.7744"
     inkscape:cy="303.79691"
     inkscape:document-units="mm"
     inkscape:current-layer="layer1"
     inkscape:document-rotation="0"
     showgrid="false"
     inkscape:window-width="1853"
     inkscape:window-height="1025"
     inkscape:window-x="67"
     inkscape:window-y="27"
     inkscape:window-maximized="1" />
  <metadata
     id="metadata31">
    <rdf:RDF>
      <cc:Work
         rdf:about="">
        <dc:format>image/svg+xml</dc:format>
        <dc:type
           rdf:resource="http://purl.org/dc/dcmitype/StillImage" />
        <dc:title />
      </cc:Work>
    </rdf:RDF>
  </metadata>
  <g
     inkscape:label="Layer 1"
     inkscape:groupmode="layer"
     id="layer1"
     transform="translate(-12.725047,-21.016711)">
    <path
       style="fill:#d32300;fill-opacity:1;stroke:none;stroke-width:0.264583px;stroke-linecap:butt;stroke-linejoin:miter;stroke-opacity:1"
       d="m 90.361878,117.79514 -9.963801,17.0449 c -3.500665,-6.23868 -6.224384,-12.63945 -3.781478,-20.11812 5.74481,-0.8562 10.660335,-0.37147 13.745279,3.07322 z"
       id="path112"
       sodipodi:nodetypes="cccc" />
    <path
       style="fill:#d32300;fill-opacity:1;stroke:none;stroke-width:0.264583px;stroke-linecap:butt;stroke-linejoin:miter;stroke-opacity:1"
       d="M 101.1961,95.044643 90.361878,117.79514 c -3.545292,-6.88165 -7.124695,-13.74101 -6.383311,-23.424587 5.872592,-2.355029 11.589228,-1.694448 17.217533,0.67409 z"
       id="path116"
       sodipodi:nodetypes="cccc" />
    <path
       style="fill:#d32300;fill-opacity:1;stroke:none;stroke-width:0.264583px;stroke-linecap:butt;stroke-linejoin:miter;stroke-opacity:1"
       d="m 101.1961,95.044643 14.38341,-30.846049 c -5.07474,-2.98663 -9.72973,-0.94588 -14.50008,-0.286833 -1.07739,10.611289 -1.549562,21.095895 0.11667,31.132882 z"
       id="path118"
       sodipodi:nodetypes="cccc" />
    <path
       style="fill:#d32300;fill-opacity:1;stroke:none;stroke-width:0.264583px;stroke-linecap:butt;stroke-linejoin:miter;stroke-opacity:1"
       d="m 101.07943,63.911761 -7.642205,-4.120867 c 3.653397,-8.008143 10.424785,-10.106955 16.677675,-13.188447 -1.07937,6.867721 -2.28448,13.664 -9.03547,17.309314 z"
       id="path122"
       sodipodi:nodetypes="cccc" />
    <path
       style="fill:#d32300;fill-opacity:1;stroke:none;stroke-width:0.264583px;stroke-linecap:butt;stroke-linejoin:miter;stroke-opacity:1"
       d="m 75.691174,64.798409 8.707771,-29.293222 c 4.408203,7.589272 10.027407,14.739456 9.03828,24.285707 -5.490245,3.640067 -11.419123,5.246522 -17.746051,5.007515 z"
       id="path126"
       sodipodi:nodetypes="cccc" />
    <path
       style="fill:#d32300;fill-opacity:1;stroke:none;stroke-width:0.264583px;stroke-linecap:butt;stroke-linejoin:miter;stroke-opacity:1"
       d="M 84.398945,35.505187 78.01094,32.603949 c -0.515369,-4.552383 2.727865,-6.985164 6.563733,-9.083739 1.543609,4.018171 1.596457,8.014776 -0.175728,11.984977 z"
       id="path130"
       sodipodi:nodetypes="cccc" />
    <path
       style="fill:#d32300;fill-opacity:1;stroke:none;stroke-width:0.264583px;stroke-linecap:butt;stroke-linejoin:miter;stroke-opacity:1"
       d="m 84.574673,23.52021 -0.175728,11.984977 c 7.625092,5.679626 17.016885,7.663986 25.715955,11.09726 z"
       id="path132"
       sodipodi:nodetypes="cccc" />
    <path
       style="fill:#d32300;fill-opacity:1;stroke:none;stroke-width:0.264583px;stroke-linecap:butt;stroke-linejoin:miter;stroke-opacity:1"
       d="M 78.01094,32.603949 66.082415,68.581051 60.8953,29.003515 c 5.923066,0.598556 13.50465,-3.382804 17.11564,3.600434 z"
       id="path134"
       sodipodi:nodetypes="cccc" />
    <path
       style="fill:#d32300;fill-opacity:1;stroke:none;stroke-width:0.264583px;stroke-linecap:butt;stroke-linejoin:miter;stroke-opacity:1"
       d="M 84.574673,23.52021 56.4291,21.016712 c 0.804419,3.446413 2.203783,6.211087 4.4662,7.986803 8.971257,0.519036 16.903448,-1.223697 23.679373,-5.483305 z"
       id="path140"
       sodipodi:nodetypes="cccc" />
    <path
       style="fill:#d32300;fill-opacity:1;stroke:none;stroke-width:0.264583px;stroke-linecap:butt;stroke-linejoin:miter;stroke-opacity:1"
       d="m 56.4291,21.016712 c -8.536588,2.740468 -12.786641,8.260694 -16.8689,13.889731 5.826876,-0.251947 11.668645,-0.447935 16.42818,-4.710218 2.478669,-2.655519 0.943841,-6.006963 0.44072,-9.179513 z"
       id="path144"
       sodipodi:nodetypes="cccc" />
    <path
       style="fill:#d32300;fill-opacity:1;stroke:none;stroke-width:0.264583px;stroke-linecap:butt;stroke-linejoin:miter;stroke-opacity:1"
       d="m 39.5602,34.906443 c 0.499414,-5.40558 -1.745256,-7.791767 -4.66501,-9.435141 -1.528251,5.376519 -2.558179,10.501444 -0.13024,13.880561 z"
       id="path146"
       sodipodi:nodetypes="cccc" />
    <path
       style="fill:#d32300;fill-opacity:1;stroke:none;stroke-width:0.264583px;stroke-linecap:butt;stroke-linejoin:miter;stroke-opacity:1"
       d="M 34.76495,39.351861 47.01925,74.432937 25.309047,50.672638 c 2.596786,-5.215055 5.459031,-9.740877 9.455903,-11.320777 z"
       id="path150"
       sodipodi:nodetypes="cccc" />
    <path
       style="fill:#d32300;fill-opacity:1;stroke:none;stroke-width:0.264583px;stroke-linecap:butt;stroke-linejoin:miter;stroke-opacity:1"
       d="M 34.89519,25.471302 12.725047,56.402636 c 4.504909,-1.096876 9.244032,-1.579889 12.584,-5.729998 C 32.019,42.691906 33.549859,34.092682 34.89519,25.471302 Z"
       id="path156"
       sodipodi:nodetypes="cccc" />
    <path
       style="fill:#d32300;fill-opacity:1;stroke:none;stroke-width:0.264583px;stroke-linecap:butt;stroke-linejoin:miter;stroke-opacity:1"
       d="m 24.368427,58.924831 c -0.130839,5.738428 0.939525,11.603938 -4.03509,16.829915 l -7.60829,-19.35211 c 4.194252,-0.602881 8.479755,-1.626458 11.64338,2.522195 z"
       id="path160"
       sodipodi:nodetypes="cccc" />
    <path
       style="fill:#d32300;fill-opacity:1;stroke:none;stroke-width:0.264583px;stroke-linecap:butt;stroke-linejoin:miter;stroke-opacity:1"
       d="m 20.333337,75.754746 7.84434,15.964407 C 34.695815,90.075457 37.838167,85.781736 39.99512,80.714467 34.219938,76.531561 27.284863,76.116435 20.333337,75.754746 Z"
       id="path164"
       sodipodi:nodetypes="cccc" />
    <path
       style="fill:#d32300;fill-opacity:1;stroke:none;stroke-width:0.264583px;stroke-linecap:butt;stroke-linejoin:miter;stroke-opacity:1"
       d="m 28.177677,91.719153 c 3.674032,16.315797 6.845001,33.331057 15.484663,42.742687 l 5.53791,-22.28428 C 43.578121,103.31166 35.983292,97.359725 28.177677,91.719153 Z"
       id="path166"
       sodipodi:nodetypes="cccc" />
    <path
       style="fill:#d32300;fill-opacity:1;stroke:none;stroke-width:0.264583px;stroke-linecap:butt;stroke-linejoin:miter;stroke-opacity:1"
       d="m 80.398077,134.84004 -20.304427,4.42338 5.988712,-14.1221 c 10.033068,-0.62591 10.483694,5.77645 14.315715,9.69872 z"
       id="path168"
       sodipodi:nodetypes="cccc" />
    <path
       style="fill:#28170b;fill-opacity:1;stroke:none;stroke-width:0.22088px;stroke-linecap:butt;stroke-linejoin:miter;stroke-opacity:1"
       d="m 118.93618,146.69324 h 49.67036 l 13.15,-18.87445 c -21.60819,4.63972 -42.14799,11.92097 -62.82036,18.87445 z"
       id="path1079"
       sodipodi:nodetypes="cccc" />
    <path
       style="fill:#3d2110;fill-opacity:1;stroke:none;stroke-width:0.22088px;stroke-linecap:butt;stroke-linejoin:miter;stroke-opacity:1"
       d="m 143.92119,123.24462 c 11.44423,3.11416 24.46448,4.08281 37.83535,4.57417 l -19.40637,-3.62931 z"
       id="path1091"
       sodipodi:nodetypes="cccc" />
    <path
       style="fill:#d32300;fill-opacity:1;stroke:none;stroke-width:0.22088px;stroke-linecap:butt;stroke-linejoin:miter;stroke-opacity:1"
       d="m 108.88411,127.82095 35.03708,-4.57633 37.83535,4.57417 c -24.75243,1.26307 -49.16383,1.60762 -72.87243,0.002 z"
       id="path1085"
       sodipodi:nodetypes="ccccc" />
    <path
       style="fill:#3d2110;fill-opacity:1;stroke:none;stroke-width:0.22088px;stroke-linecap:butt;stroke-linejoin:miter;stroke-opacity:1"
       d="m 108.88411,127.82095 c 11.67903,-0.62117 23.35805,-2.15581 35.03708,-4.57633 l -19.51036,1.54442 z"
       id="path1089"
       sodipodi:nodetypes="cccc" />
    <path
       style="fill:#3d2110;fill-opacity:1;stroke:none;stroke-width:0.22088px;stroke-linecap:butt;stroke-linejoin:miter;stroke-opacity:1"
       d="m 185.01201,113.62903 -7.44608,-1.28763 -17.78148,17.00301 c 9.35391,-4.2952 17.14441,-8.47151 25.22756,-15.71538 z"
       id="path1083"
       sodipodi:nodetypes="cccc" />
    <path
       style="fill:#28170b;fill-opacity:1;stroke:none;stroke-width:0.22088px;stroke-linecap:butt;stroke-linejoin:miter;stroke-opacity:1"
       d="m 159.78445,129.34441 25.22756,-15.71538 -13.43342,15.96369 c -4.26424,1.26228 -8.02351,0.48405 -11.79414,-0.24831 z"
       id="path1081"
       sodipodi:nodetypes="cccc" />
    <path
       style="fill:#3d2110;fill-opacity:1;stroke:none;stroke-width:0.22088px;stroke-linecap:butt;stroke-linejoin:miter;stroke-opacity:1"
       d="m 108.88411,127.82095 72.87243,-0.002 -62.82036,18.87444 z"
       id="path1077"
       sodipodi:nodetypes="cccc" />
    <path
       style="fill:#d32300;fill-opacity:1;stroke:none;stroke-width:0.22088px;stroke-linecap:butt;stroke-linejoin:miter;stroke-opacity:1"
       d="m 181.75654,127.81879 -38.5714,4.42177 -34.30103,-4.41961 c 24.23259,-0.9269 48.53715,-0.70885 72.87243,-0.002 z"
       id="path1087"
       sodipodi:nodetypes="cccc" />
    <path
       style="fill:#28170b;fill-opacity:1;stroke:none;stroke-width:0.150593px;stroke-linecap:butt;stroke-linejoin:miter;stroke-opacity:1"
       d="m 168.61959,146.69167 -26.29745,3.0147 -23.38596,-3.01323 c 16.81028,-0.69825 33.46678,-0.96582 49.68341,-0.002 z"
       id="path1103"
       sodipodi:nodetypes="cccc" />
    <path
       style="fill:#943300;fill-opacity:1;stroke:none;stroke-width:0.264583px;stroke-linecap:butt;stroke-linejoin:miter;stroke-opacity:1"
       d="m 28.177677,91.719156 3.844713,45.971264 11.63995,-3.22858 z"
       id="path1159" />
    <g
       id="g1007"
       style="fill:#943300;fill-opacity:1"
       transform="matrix(-1,0,0,1,163.51053,-29.797094)">
      <path
         style="fill:#943300;fill-opacity:1;stroke:none;stroke-width:0.264583px;stroke-linecap:butt;stroke-linejoin:miter;stroke-opacity:1"
         d="m 97.42817,154.93842 -10.534239,-10.4194 -3.781478,20.11812 z"
         id="path108" />
      <path
         style="fill:#943300;fill-opacity:1;stroke:none;stroke-width:0.264583px;stroke-linecap:butt;stroke-linejoin:miter;stroke-opacity:1"
         d="m 86.893931,144.51902 -7.361968,-20.35137 -6.383311,23.42459 z"
         id="path110" />
      <path
         style="fill:#943300;fill-opacity:1;stroke:none;stroke-width:0.264583px;stroke-linecap:butt;stroke-linejoin:miter;stroke-opacity:1"
         d="M 79.531963,124.16765 62.431098,93.708856 62.314428,124.84174 Z"
         id="path114" />
      <path
         style="fill:#943300;fill-opacity:1;stroke:none;stroke-width:0.264583px;stroke-linecap:butt;stroke-linejoin:miter;stroke-opacity:1"
         d="m 47.93102,93.995687 5.464608,-17.596145 9.03547,17.309312 z"
         id="path120"
         sodipodi:nodetypes="cccc" />
      <path
         style="fill:#943300;fill-opacity:1;stroke:none;stroke-width:0.264583px;stroke-linecap:butt;stroke-linejoin:miter;stroke-opacity:1"
         d="M 70.073305,89.587987 85.04934,109.78866 87.819356,94.595502 Z"
         id="path124" />
      <path
         style="fill:#943300;fill-opacity:1;stroke:none;stroke-width:0.264583px;stroke-linecap:butt;stroke-linejoin:miter;stroke-opacity:1"
         d="M 53.395628,76.39954 79.111585,65.30228 70.073305,89.587987 Z"
         id="path128" />
      <path
         style="fill:#943300;fill-opacity:1;stroke:none;stroke-width:0.264583px;stroke-linecap:butt;stroke-linejoin:miter;stroke-opacity:1"
         d="m 78.935857,53.317303 23.679373,5.483305 -17.11564,3.600434 z"
         id="path136" />
      <path
         style="fill:#943300;fill-opacity:1;stroke:none;stroke-width:0.264583px;stroke-linecap:butt;stroke-linejoin:miter;stroke-opacity:1"
         d="m 102.61523,58.800608 4.4662,-7.986803 0.44072,9.179513 z"
         id="path138" />
      <path
         style="fill:#943300;fill-opacity:1;stroke:none;stroke-width:0.264583px;stroke-linecap:butt;stroke-linejoin:miter;stroke-opacity:1"
         d="m 107.52215,59.993318 0.47168,38.441034 15.9565,-33.730816 z"
         id="path142" />
      <path
         style="fill:#943300;fill-opacity:1;stroke:none;stroke-width:0.264583px;stroke-linecap:butt;stroke-linejoin:miter;stroke-opacity:1"
         d="m 128.61534,55.268395 -21.53391,-4.45459 16.8689,13.889731 z"
         id="path148"
         sodipodi:nodetypes="cccc" />
      <path
         style="fill:#943300;fill-opacity:1;stroke:none;stroke-width:0.264583px;stroke-linecap:butt;stroke-linejoin:miter;stroke-opacity:1"
         d="m 128.61534,55.268395 9.58615,25.201336 -9.45591,-11.320777 z"
         id="path152"
         sodipodi:nodetypes="cccc" />
      <path
         style="fill:#943300;fill-opacity:1;stroke:none;stroke-width:0.264583px;stroke-linecap:butt;stroke-linejoin:miter;stroke-opacity:1"
         d="m 138.20149,80.469731 0.94062,8.252195 11.64337,-2.522197 z"
         id="path154"
         sodipodi:nodetypes="cccc" />
      <path
         style="fill:#943300;fill-opacity:1;stroke:none;stroke-width:0.264583px;stroke-linecap:butt;stroke-linejoin:miter;stroke-opacity:1"
         d="m 139.14211,88.721924 -15.6267,21.789636 19.66178,-4.95972 z"
         id="path158"
         sodipodi:nodetypes="cccc" />
      <path
         style="fill:#943300;fill-opacity:1;stroke:none;stroke-width:0.264583px;stroke-linecap:butt;stroke-linejoin:miter;stroke-opacity:1"
         d="m 123.51541,110.51156 -9.20513,31.4631 21.02257,-20.45841 z"
         id="path162" />
    </g>
  </g>
</svg>
