<?xml version="1.0" encoding="UTF-8" standalone="no"?>
<svg
   xmlns:dc="http://purl.org/dc/elements/1.1/"
   xmlns:cc="http://creativecommons.org/ns#"
   xmlns:rdf="http://www.w3.org/1999/02/22-rdf-syntax-ns#"
   xmlns:svg="http://www.w3.org/2000/svg"
   xmlns="http://www.w3.org/2000/svg"
   xmlns:sodipodi="http://sodipodi.sourceforge.net/DTD/sodipodi-0.dtd"
   xmlns:inkscape="http://www.inkscape.org/namespaces/inkscape"
   width="108.90986mm"
   height="101.20617mm"
   viewBox="0 0 108.90986 101.20617"
   version="1.1"
   id="svg2652"
   inkscape:version="1.0.1 (3bc2e813f5, 2020-09-07)"
   sodipodi:docname="stone_tool_maker.svg">
  <defs
     id="defs2646" />
  <sodipodi:namedview
     id="base"
     pagecolor="#ffffff"
     bordercolor="#666666"
     borderopacity="1.0"
     inkscape:pageopacity="0.0"
     inkscape:pageshadow="2"
     inkscape:zoom="1.9012352"
     inkscape:cx="120.55583"
     inkscape:cy="213.59802"
     inkscape:document-units="mm"
     inkscape:current-layer="layer1"
     inkscape:document-rotation="0"
     showgrid="false"
     inkscape:window-width="1853"
     inkscape:window-height="1025"
     inkscape:window-x="67"
     inkscape:window-y="27"
     inkscape:window-maximized="1" />
  <metadata
     id="metadata2649">
    <rdf:RDF>
      <cc:Work
         rdf:about="">
        <dc:format>image/svg+xml</dc:format>
        <dc:type
           rdf:resource="http://purl.org/dc/dcmitype/StillImage" />
        <dc:title />
      </cc:Work>
    </rdf:RDF>
  </metadata>
  <g
     inkscape:label="Layer 1"
     inkscape:groupmode="layer"
     id="layer1"
     transform="translate(-138.76242,-126.69638)">
    <path
       id="path3470"
       style="fill:#4d4d4d;fill-opacity:1;stroke:none;stroke-width:0.330332px;stroke-linecap:butt;stroke-linejoin:miter;stroke-opacity:1"
       d="m 222.4375,179.38281 c -8.46477,4.84846 -16.84451,9.85508 -25.4174,14.5109 -0.79173,0.38279 -0.83774,1.42 -1.29455,2.08977 -2.6162,5.48467 -5.2324,10.96935 -7.8486,16.45402 7.63347,4.94141 15.26693,9.88281 22.90039,14.82422 4.43091,-3.20097 8.83082,-6.45253 13.28907,-9.60742 7.52083,-2.97526 15.04166,-5.95052 22.5625,-8.92578 0.16862,-9.39779 0.33724,-18.79558 0.50586,-28.19336 -4.808,-0.8342 -9.61425,-1.75075 -14.42333,-2.53355 -3.42465,0.4604 -6.84929,0.9208 -10.27394,1.3812 z" />
    <path
       id="path3446"
       style="fill:#666666;fill-opacity:1;stroke:none;stroke-width:0.264583px;stroke-linecap:butt;stroke-linejoin:miter;stroke-opacity:1"
       d="m 149.41602,144.30664 c -3.36263,5.11458 -6.72526,10.22917 -10.0879,15.34375 2.95118,12.77604 5.90235,25.55208 8.85352,38.32813 3.07422,2.00651 6.14844,4.01302 9.22266,6.01953 7.81771,-5.69792 15.63541,-11.39584 23.45312,-17.09375 4.65886,-9.51172 9.31771,-19.02344 13.97656,-28.53516 -0.88606,-6.11393 -1.77213,-12.22786 -2.6582,-18.3418 -5.69075,-4.22786 -11.38151,-8.45573 -17.07226,-12.68359 -8.5625,5.6543 -17.125,11.30859 -25.6875,16.96289 z" />
    <path
       style="fill:#292929;fill-opacity:1;stroke:none;stroke-width:0.330331px;stroke-linecap:butt;stroke-linejoin:miter;stroke-opacity:1"
       d="m 239.708,192.88992 c 1.46145,3.5947 7.44508,16.2029 7.44508,16.2029 l 0.5192,-28.99861 z"
       id="path3371"
       sodipodi:nodetypes="cccc" />
    <path
       style="fill:#292929;fill-opacity:1;stroke:none;stroke-width:0.264583px;stroke-linecap:butt;stroke-linejoin:miter;stroke-opacity:1"
       d="m 195.38111,158.45453 -23.46104,19.26479 10.97513,-20.02172 c 4.44658,-0.72598 8.77701,-1.0527 12.48591,0.75693 z"
       id="path3267"
       sodipodi:nodetypes="cccc" />
    <path
       style="fill:#595959;fill-opacity:1;stroke:none;stroke-width:0.264583px;stroke-linecap:butt;stroke-linejoin:miter;stroke-opacity:1"
       d="m 149.03218,143.9268 8.39086,60.713 35.24441,-64.90409 z"
       id="path3261"
       sodipodi:nodetypes="cccc" />
    <path
       style="fill:#292929;stroke:none;stroke-width:0.264583px;stroke-linecap:butt;stroke-linejoin:miter;stroke-opacity:1;fill-opacity:1"
       d="m 192.66745,139.73571 2.71366,18.71882 -12.48591,-0.75693 z"
       id="path3265"
       sodipodi:nodetypes="cccc" />
    <path
       style="fill:#424242;fill-opacity:1;stroke:none;stroke-width:0.264583px;stroke-linecap:butt;stroke-linejoin:miter;stroke-opacity:1"
       d="m 195.38111,158.45453 -14.10913,28.80279 -9.35191,-9.538 z"
       id="path3273"
       sodipodi:nodetypes="cccc" />
    <path
       style="fill:#424242;fill-opacity:1;stroke:none;stroke-width:0.264583px;stroke-linecap:butt;stroke-linejoin:miter;stroke-opacity:1"
       d="m 171.92007,177.71932 -14.49703,26.92048 23.84894,-17.38248 z"
       id="path3275"
       sodipodi:nodetypes="cccc" />
    <path
       style="fill:#292929;stroke:none;stroke-width:0.264583px;stroke-linecap:butt;stroke-linejoin:miter;stroke-opacity:1;fill-opacity:1"
       d="m 192.66745,139.73571 -17.5458,-13.03933 2.58388,14.48318 z"
       id="path3277"
       sodipodi:nodetypes="cccc" />
    <path
       style="fill:#424242;fill-opacity:1;stroke:none;stroke-width:0.264583px;stroke-linecap:butt;stroke-linejoin:miter;stroke-opacity:1"
       d="m 175.12165,126.69638 2.58388,14.48318 -28.67335,2.74724 z"
       id="path3281" />
    <path
       style="fill:#424242;fill-opacity:1;stroke:none;stroke-width:0.264583px;stroke-linecap:butt;stroke-linejoin:miter;stroke-opacity:1"
       d="m 149.03218,143.9268 -10.26976,15.62254 15.57156,20.96323 z"
       id="path3283"
       sodipodi:nodetypes="cccc" />
    <path
       style="fill:#424242;fill-opacity:1;stroke:none;stroke-width:0.264583px;stroke-linecap:butt;stroke-linejoin:miter;stroke-opacity:1"
       d="m 157.42304,204.6398 -9.70776,-6.3363 6.6187,-17.79093 z"
       id="path3285"
       sodipodi:nodetypes="cccc" />
    <path
       style="fill:#292929;fill-opacity:1;stroke:none;stroke-width:0.264583px;stroke-linecap:butt;stroke-linejoin:miter;stroke-opacity:1"
       d="m 138.76242,159.54934 8.95286,38.75416 6.6187,-17.79093 z"
       id="path3287"
       sodipodi:nodetypes="cccc" />
    <path
       style="fill:#595959;fill-opacity:1;stroke:none;stroke-width:0.330331px;stroke-linecap:butt;stroke-linejoin:miter;stroke-opacity:1"
       d="m 187.19947,212.62476 60.47281,-32.53055 -23.4731,38.07705 z"
       id="path3349"
       sodipodi:nodetypes="cccc" />
    <path
       style="fill:#292929;fill-opacity:1;stroke:none;stroke-width:0.330331px;stroke-linecap:butt;stroke-linejoin:miter;stroke-opacity:1"
       d="m 187.19947,212.62476 8.99229,-18.85656 2.62738,12.56777 z"
       id="path3351"
       sodipodi:nodetypes="cccc" />
    <path
       style="fill:#424242;fill-opacity:1;stroke:none;stroke-width:0.330331px;stroke-linecap:butt;stroke-linejoin:miter;stroke-opacity:1"
       d="m 196.19176,193.7682 2.62738,12.56777 5.45959,-17.06698 z"
       id="path3353"
       sodipodi:nodetypes="cccc" />
    <path
       style="fill:#292929;fill-opacity:1;stroke:none;stroke-width:0.330331px;stroke-linecap:butt;stroke-linejoin:miter;stroke-opacity:1"
       d="m 204.27873,189.26899 -5.45959,17.06698 11.99383,-6.45128 z"
       id="path3355" />
    <path
       style="fill:#424242;fill-opacity:1;stroke:none;stroke-width:0.330331px;stroke-linecap:butt;stroke-linejoin:miter;stroke-opacity:1"
       d="m 204.27873,189.26899 6.53424,10.6157 8.89669,-4.62431 z"
       id="path3357" />
    <path
       style="fill:#292929;fill-opacity:1;stroke:none;stroke-width:0.330331px;stroke-linecap:butt;stroke-linejoin:miter;stroke-opacity:1"
       d="m 204.27873,189.26899 15.43093,5.99139 2.55007,-16.39084 z"
       id="path3359" />
    <path
       style="fill:#424242;fill-opacity:1;stroke:none;stroke-width:0.330331px;stroke-linecap:butt;stroke-linejoin:miter;stroke-opacity:1"
       d="m 222.25973,178.86954 -2.55007,16.39084 11.39762,-6.276 z"
       id="path3361" />
    <path
       style="fill:#595959;fill-opacity:1;stroke:none;stroke-width:0.330331px;stroke-linecap:butt;stroke-linejoin:miter;stroke-opacity:1"
       d="m 222.25973,178.86954 8.84755,10.11484 1.71361,-11.53303 z"
       id="path3363" />
    <path
       style="fill:#292929;fill-opacity:1;stroke:none;stroke-width:0.330331px;stroke-linecap:butt;stroke-linejoin:miter;stroke-opacity:1"
       d="m 232.82089,177.45135 14.85139,2.64286 -16.565,8.89017 z"
       id="path3365" />
    <path
       style="fill:#424242;fill-opacity:1;stroke:none;stroke-width:0.330331px;stroke-linecap:butt;stroke-linejoin:miter;stroke-opacity:1"
       d="m 187.19947,212.62476 23.59555,15.27779 13.40416,-9.73129 z"
       id="path3367"
       sodipodi:nodetypes="cccc" />
    <path
       style="fill:#424242;fill-opacity:1;stroke:none;stroke-width:0.330331px;stroke-linecap:butt;stroke-linejoin:miter;stroke-opacity:1"
       d="m 224.19918,218.17126 22.9539,-9.07844 -7.44508,-16.2029 z"
       id="path3369"
       sodipodi:nodetypes="cccc" />
    <path
       style="font-variation-settings:normal;opacity:1;vector-effect:none;fill:#757575;fill-opacity:1;stroke:none;stroke-width:0.264583px;stroke-linecap:butt;stroke-linejoin:miter;stroke-miterlimit:4;stroke-dasharray:none;stroke-dashoffset:0;stroke-opacity:1;stop-color:#000000;stop-opacity:1"
       d="m 149.41602,144.30664 14.5602,13.38099 -6.57192,46.31042 z"
       id="path3208" />
    <path
       style="font-variation-settings:normal;opacity:1;vector-effect:none;fill:#666666;fill-opacity:1;stroke:none;stroke-width:0.264583px;stroke-linecap:butt;stroke-linejoin:miter;stroke-miterlimit:4;stroke-dasharray:none;stroke-dashoffset:0;stroke-opacity:1;stop-color:#000000;stop-opacity:1"
       d="m 149.03218,143.9268 14.94404,13.76083 28.19956,-17.66029 z"
       id="path3210" />
    <path
       style="font-variation-settings:normal;opacity:1;vector-effect:none;fill:#666666;fill-opacity:1;stroke:none;stroke-width:0.264583px;stroke-linecap:butt;stroke-linejoin:miter;stroke-miterlimit:4;stroke-dasharray:none;stroke-dashoffset:0;stroke-opacity:1;stop-color:#000000;stop-opacity:1"
       d="m 187.19947,212.62476 32.62674,-4.13069 4.37297,9.67719 z"
       id="path3212" />
    <path
       style="font-variation-settings:normal;opacity:1;vector-effect:none;fill:#757575;fill-opacity:1;stroke:none;stroke-width:0.264583px;stroke-linecap:butt;stroke-linejoin:miter;stroke-miterlimit:4;stroke-dasharray:none;stroke-dashoffset:0;stroke-opacity:1;stop-color:#000000;stop-opacity:1"
       d="m 219.82621,208.49407 27.30856,-27.95891 -59.25782,31.90234 z"
       id="path3214" />
  </g>
</svg>
